<svg width="136" height="130" viewBox="0 0 136 130" fill="none" xmlns="http://www.w3.org/2000/svg">
<path d="M48.9835 10.7434L49.3662 9.81955L48.9835 10.7434ZM118.257 80.0165L117.333 80.3992L118.257 80.0165ZM127.293 129.707C127.683 130.098 128.317 130.098 128.707 129.707L135.071 123.343C135.462 122.953 135.462 122.319 135.071 121.929C134.681 121.538 134.047 121.538 133.657 121.929L128 127.586L122.343 121.929C121.953 121.538 121.319 121.538 120.929 121.929C120.538 122.319 120.538 122.953 120.929 123.343L127.293 129.707ZM-5.55135e-06 2.00001C16.6779 2.00001 33.1924 5.28496 48.6008 11.6673L49.3662 9.81955C33.7152 3.33669 16.9405 -7.40494e-07 -5.63877e-06 0L-5.55135e-06 2.00001ZM48.6008 11.6673C64.0091 18.0497 78.0095 27.4044 89.8026 39.1974L91.2168 37.7832C79.238 25.8045 65.0172 16.3024 49.3662 9.81955L48.6008 11.6673ZM89.8026 39.1974C101.596 50.9905 110.95 64.9908 117.333 80.3992L119.18 79.6338C112.698 63.9828 103.196 49.762 91.2168 37.7832L89.8026 39.1974ZM117.333 80.3992C123.715 95.8075 127 112.322 127 129L129 129C129 112.059 125.663 95.2848 119.18 79.6338L117.333 80.3992Z" fill="#CEA476"/>
</svg>
