<svg width="1440" height="540" viewBox="0 0 1440 540" fill="none" xmlns="http://www.w3.org/2000/svg">
<g filter="url(#filter0_d_3917_66)" opacity="1">
<path d="M847.16 428.64C850.312 428.64 852.568 431.152 852.568 434.4C852.568 437.648 850.312 440.16 847.16 440.16C844.008 440.16 841.768 437.648 841.768 434.4C841.768 431.152 844.008 428.64 847.16 428.64ZM847.16 438.64C849.368 438.64 850.936 436.832 850.936 434.4C850.936 431.968 849.368 430.16 847.16 430.16C844.952 430.16 843.4 431.952 843.4 434.4C843.4 436.832 844.952 438.64 847.16 438.64ZM857.856 431.408C857.856 432.656 856.8 433.344 855.744 433.344C855.136 433.344 854.608 433.216 854.288 432.992C854.096 432.864 854 432.704 854 432.496C854 432.192 854.224 431.936 854.544 431.936C854.656 431.936 854.736 431.952 854.896 432.064C855.024 432.144 855.28 432.304 855.648 432.304C856.16 432.304 856.672 432.016 856.672 431.44C856.672 430.976 856.272 430.72 855.76 430.72C855.44 430.72 855.216 430.88 854.864 430.896C854.608 430.912 854.368 430.688 854.368 430.416C854.368 430.272 854.4 430.096 854.528 430L856.032 428.688H854.624C854.304 428.688 854.064 428.448 854.064 428.144C854.064 427.824 854.304 427.616 854.624 427.616H857.008C857.36 427.616 857.616 427.856 857.616 428.192C857.632 428.368 857.584 428.544 857.456 428.64L856.144 429.744C857.264 429.76 857.856 430.464 857.856 431.408Z" fill="white"/>
<animate attributeName="opacity" dur="7s" values="1;0;1;1;1;1;1;1;1;1;1;1;1;1;1;1;1" repeatCount="indefinite" />
</g>
<g filter="url(#filter1_d_3917_66)" opacity="1">
<path d="M1008.16 160.64C1011.31 160.64 1013.57 163.152 1013.57 166.4C1013.57 169.648 1011.31 172.16 1008.16 172.16C1005.01 172.16 1002.77 169.648 1002.77 166.4C1002.77 163.152 1005.01 160.64 1008.16 160.64ZM1008.16 170.64C1010.37 170.64 1011.94 168.832 1011.94 166.4C1011.94 163.968 1010.37 162.16 1008.16 162.16C1005.95 162.16 1004.4 163.952 1004.4 166.4C1004.4 168.832 1005.95 170.64 1008.16 170.64ZM1018.86 163.408C1018.86 164.656 1017.8 165.344 1016.74 165.344C1016.14 165.344 1015.61 165.216 1015.29 164.992C1015.1 164.864 1015 164.704 1015 164.496C1015 164.192 1015.22 163.936 1015.54 163.936C1015.66 163.936 1015.74 163.952 1015.9 164.064C1016.02 164.144 1016.28 164.304 1016.65 164.304C1017.16 164.304 1017.67 164.016 1017.67 163.44C1017.67 162.976 1017.27 162.72 1016.76 162.72C1016.44 162.72 1016.22 162.88 1015.86 162.896C1015.61 162.912 1015.37 162.688 1015.37 162.416C1015.37 162.272 1015.4 162.096 1015.53 162L1017.03 160.688H1015.62C1015.3 160.688 1015.06 160.448 1015.06 160.144C1015.06 159.824 1015.3 159.616 1015.62 159.616H1018.01C1018.36 159.616 1018.62 159.856 1018.62 160.192C1018.63 160.368 1018.58 160.544 1018.46 160.64L1017.14 161.744C1018.26 161.76 1018.86 162.464 1018.86 163.408Z" fill="white"/>
<animate attributeName="opacity" dur="7s" values="1;1;0;1;1;1;1;1;1;1;1;1;1;1;1;1;1" repeatCount="indefinite" />
</g>
<g filter="url(#filter2_d_3917_66)" opacity="1">
<path d="M838.16 474.64C841.312 474.64 843.568 477.152 843.568 480.4C843.568 483.648 841.312 486.16 838.16 486.16C835.008 486.16 832.768 483.648 832.768 480.4C832.768 477.152 835.008 474.64 838.16 474.64ZM838.16 484.64C840.368 484.64 841.936 482.832 841.936 480.4C841.936 477.968 840.368 476.16 838.16 476.16C835.952 476.16 834.4 477.952 834.4 480.4C834.4 482.832 835.952 484.64 838.16 484.64ZM848.856 477.408C848.856 478.656 847.8 479.344 846.744 479.344C846.136 479.344 845.608 479.216 845.288 478.992C845.096 478.864 845 478.704 845 478.496C845 478.192 845.224 477.936 845.544 477.936C845.656 477.936 845.736 477.952 845.896 478.064C846.024 478.144 846.28 478.304 846.648 478.304C847.16 478.304 847.672 478.016 847.672 477.44C847.672 476.976 847.272 476.72 846.76 476.72C846.44 476.72 846.216 476.88 845.864 476.896C845.608 476.912 845.368 476.688 845.368 476.416C845.368 476.272 845.4 476.096 845.528 476L847.032 474.688H845.624C845.304 474.688 845.064 474.448 845.064 474.144C845.064 473.824 845.304 473.616 845.624 473.616H848.008C848.36 473.616 848.616 473.856 848.616 474.192C848.632 474.368 848.584 474.544 848.456 474.64L847.144 475.744C848.264 475.76 848.856 476.464 848.856 477.408Z" fill="white"/>
<animate attributeName="opacity" dur="7s" values="1;1;1;0;1;1;1;1;1;1;1;1;1;1;1;1;1" repeatCount="indefinite" />
</g>
<g filter="url(#filter3_d_3917_66)" opacity="1">
<path d="M838.16 165.64C841.312 165.64 843.568 168.152 843.568 171.4C843.568 174.648 841.312 177.16 838.16 177.16C835.008 177.16 832.768 174.648 832.768 171.4C832.768 168.152 835.008 165.64 838.16 165.64ZM838.16 175.64C840.368 175.64 841.936 173.832 841.936 171.4C841.936 168.968 840.368 167.16 838.16 167.16C835.952 167.16 834.4 168.952 834.4 171.4C834.4 173.832 835.952 175.64 838.16 175.64ZM848.856 168.408C848.856 169.656 847.8 170.344 846.744 170.344C846.136 170.344 845.608 170.216 845.288 169.992C845.096 169.864 845 169.704 845 169.496C845 169.192 845.224 168.936 845.544 168.936C845.656 168.936 845.736 168.952 845.896 169.064C846.024 169.144 846.28 169.304 846.648 169.304C847.16 169.304 847.672 169.016 847.672 168.44C847.672 167.976 847.272 167.72 846.76 167.72C846.44 167.72 846.216 167.88 845.864 167.896C845.608 167.912 845.368 167.688 845.368 167.416C845.368 167.272 845.4 167.096 845.528 167L847.032 165.688H845.624C845.304 165.688 845.064 165.448 845.064 165.144C845.064 164.824 845.304 164.616 845.624 164.616H848.008C848.36 164.616 848.616 164.856 848.616 165.192C848.632 165.368 848.584 165.544 848.456 165.64L847.144 166.744C848.264 166.76 848.856 167.464 848.856 168.408Z" fill="white"/>
<animate attributeName="opacity" dur="7s" values="1;1;1;1;0;1;1;1;1;1;1;1;1;1;1;1;1" repeatCount="indefinite" />
</g>
<g filter="url(#filter4_d_3917_66)" opacity="1">
<path d="M892.62 128.48C894.984 128.48 896.676 130.364 896.676 132.8C896.676 135.236 894.984 137.12 892.62 137.12C890.256 137.12 888.576 135.236 888.576 132.8C888.576 130.364 890.256 128.48 892.62 128.48ZM892.62 135.98C894.276 135.98 895.452 134.624 895.452 132.8C895.452 130.976 894.276 129.62 892.62 129.62C890.964 129.62 889.8 130.964 889.8 132.8C889.8 134.624 890.964 135.98 892.62 135.98ZM900.642 130.556C900.642 131.492 899.85 132.008 899.058 132.008C898.602 132.008 898.206 131.912 897.966 131.744C897.822 131.648 897.75 131.528 897.75 131.372C897.75 131.144 897.918 130.952 898.158 130.952C898.242 130.952 898.302 130.964 898.422 131.048C898.518 131.108 898.71 131.228 898.986 131.228C899.37 131.228 899.754 131.012 899.754 130.58C899.754 130.232 899.454 130.04 899.07 130.04C898.83 130.04 898.662 130.16 898.398 130.172C898.206 130.184 898.026 130.016 898.026 129.812C898.026 129.704 898.05 129.572 898.146 129.5L899.274 128.516H898.218C897.978 128.516 897.798 128.336 897.798 128.108C897.798 127.868 897.978 127.712 898.218 127.712H900.006C900.27 127.712 900.462 127.892 900.462 128.144C900.474 128.276 900.438 128.408 900.342 128.48L899.358 129.308C900.198 129.32 900.642 129.848 900.642 130.556Z" fill="white"/>
<animate attributeName="opacity" dur="7s" values="1;1;1;1;1;0;1;1;1;1;1;1;1;1;1;1;1" repeatCount="indefinite" />
</g>
<g filter="url(#filter5_d_3917_66)" opacity="1">
<path d="M1099.24 322.96C1103.97 322.96 1107.35 326.728 1107.35 331.6C1107.35 336.472 1103.97 340.24 1099.24 340.24C1094.51 340.24 1091.15 336.472 1091.15 331.6C1091.15 326.728 1094.51 322.96 1099.24 322.96ZM1099.24 337.96C1102.55 337.96 1104.9 335.248 1104.9 331.6C1104.9 327.952 1102.55 325.24 1099.24 325.24C1095.93 325.24 1093.6 327.928 1093.6 331.6C1093.6 335.248 1095.93 337.96 1099.24 337.96ZM1115.28 327.112C1115.28 328.984 1113.7 330.016 1112.12 330.016C1111.2 330.016 1110.41 329.824 1109.93 329.488C1109.64 329.296 1109.5 329.056 1109.5 328.744C1109.5 328.288 1109.84 327.904 1110.32 327.904C1110.48 327.904 1110.6 327.928 1110.84 328.096C1111.04 328.216 1111.42 328.456 1111.97 328.456C1112.74 328.456 1113.51 328.024 1113.51 327.16C1113.51 326.464 1112.91 326.08 1112.14 326.08C1111.66 326.08 1111.32 326.32 1110.8 326.344C1110.41 326.368 1110.05 326.032 1110.05 325.624C1110.05 325.408 1110.1 325.144 1110.29 325L1112.55 323.032H1110.44C1109.96 323.032 1109.6 322.672 1109.6 322.216C1109.6 321.736 1109.96 321.424 1110.44 321.424H1114.01C1114.54 321.424 1114.92 321.784 1114.92 322.288C1114.95 322.552 1114.88 322.816 1114.68 322.96L1112.72 324.616C1114.4 324.64 1115.28 325.696 1115.28 327.112Z" fill="white"/>
<animate attributeName="opacity" dur="7s" values="1;1;1;1;1;1;0;1;1;1;1;1;1;1;1;1;1" repeatCount="indefinite" />
</g>
<g filter="url(#filter6_d_3917_66)" opacity="1">
<path d="M921.24 178.96C925.968 178.96 929.352 182.728 929.352 187.6C929.352 192.472 925.968 196.24 921.24 196.24C916.512 196.24 913.152 192.472 913.152 187.6C913.152 182.728 916.512 178.96 921.24 178.96ZM921.24 193.96C924.552 193.96 926.904 191.248 926.904 187.6C926.904 183.952 924.552 181.24 921.24 181.24C917.928 181.24 915.6 183.928 915.6 187.6C915.6 191.248 917.928 193.96 921.24 193.96ZM937.284 183.112C937.284 184.984 935.7 186.016 934.116 186.016C933.204 186.016 932.412 185.824 931.932 185.488C931.644 185.296 931.5 185.056 931.5 184.744C931.5 184.288 931.836 183.904 932.316 183.904C932.484 183.904 932.604 183.928 932.844 184.096C933.036 184.216 933.42 184.456 933.972 184.456C934.74 184.456 935.508 184.024 935.508 183.16C935.508 182.464 934.908 182.08 934.14 182.08C933.66 182.08 933.324 182.32 932.796 182.344C932.412 182.368 932.052 182.032 932.052 181.624C932.052 181.408 932.1 181.144 932.292 181L934.548 179.032H932.436C931.956 179.032 931.596 178.672 931.596 178.216C931.596 177.736 931.956 177.424 932.436 177.424H936.012C936.54 177.424 936.924 177.784 936.924 178.288C936.948 178.552 936.876 178.816 936.684 178.96L934.716 180.616C936.396 180.64 937.284 181.696 937.284 183.112Z" fill="white"/>
<animate attributeName="opacity" dur="7s" values="1;1;1;1;1;1;1;0;1;1;1;1;1;1;1;1;1" repeatCount="indefinite" />
</g>
<g filter="url(#filter7_d_3917_66)" opacity="1">
<path d="M976.16 302.64C979.312 302.64 981.568 305.152 981.568 308.4C981.568 311.648 979.312 314.16 976.16 314.16C973.008 314.16 970.768 311.648 970.768 308.4C970.768 305.152 973.008 302.64 976.16 302.64ZM976.16 312.64C978.368 312.64 979.936 310.832 979.936 308.4C979.936 305.968 978.368 304.16 976.16 304.16C973.952 304.16 972.4 305.952 972.4 308.4C972.4 310.832 973.952 312.64 976.16 312.64ZM986.856 305.408C986.856 306.656 985.8 307.344 984.744 307.344C984.136 307.344 983.608 307.216 983.288 306.992C983.096 306.864 983 306.704 983 306.496C983 306.192 983.224 305.936 983.544 305.936C983.656 305.936 983.736 305.952 983.896 306.064C984.024 306.144 984.28 306.304 984.648 306.304C985.16 306.304 985.672 306.016 985.672 305.44C985.672 304.976 985.272 304.72 984.76 304.72C984.44 304.72 984.216 304.88 983.864 304.896C983.608 304.912 983.368 304.688 983.368 304.416C983.368 304.272 983.4 304.096 983.528 304L985.032 302.688H983.624C983.304 302.688 983.064 302.448 983.064 302.144C983.064 301.824 983.304 301.616 983.624 301.616H986.008C986.36 301.616 986.616 301.856 986.616 302.192C986.632 302.368 986.584 302.544 986.456 302.64L985.144 303.744C986.264 303.76 986.856 304.464 986.856 305.408Z" fill="white"/>
<animate attributeName="opacity" dur="7s" values="1;1;1;1;1;1;1;1;0;1;1;1;1;1;1;1;1" repeatCount="indefinite" />
</g>
<g filter="url(#filter8_d_3917_66)" opacity="1">
<path d="M827.24 351.96C831.968 351.96 835.352 355.728 835.352 360.6C835.352 365.472 831.968 369.24 827.24 369.24C822.512 369.24 819.152 365.472 819.152 360.6C819.152 355.728 822.512 351.96 827.24 351.96ZM827.24 366.96C830.552 366.96 832.904 364.248 832.904 360.6C832.904 356.952 830.552 354.24 827.24 354.24C823.928 354.24 821.6 356.928 821.6 360.6C821.6 364.248 823.928 366.96 827.24 366.96ZM843.284 356.112C843.284 357.984 841.7 359.016 840.116 359.016C839.204 359.016 838.412 358.824 837.932 358.488C837.644 358.296 837.5 358.056 837.5 357.744C837.5 357.288 837.836 356.904 838.316 356.904C838.484 356.904 838.604 356.928 838.844 357.096C839.036 357.216 839.42 357.456 839.972 357.456C840.74 357.456 841.508 357.024 841.508 356.16C841.508 355.464 840.908 355.08 840.14 355.08C839.66 355.08 839.324 355.32 838.796 355.344C838.412 355.368 838.052 355.032 838.052 354.624C838.052 354.408 838.1 354.144 838.292 354L840.548 352.032H838.436C837.956 352.032 837.596 351.672 837.596 351.216C837.596 350.736 837.956 350.424 838.436 350.424H842.012C842.54 350.424 842.924 350.784 842.924 351.288C842.948 351.552 842.876 351.816 842.684 351.96L840.716 353.616C842.396 353.64 843.284 354.696 843.284 356.112Z" fill="white"/>
<animate attributeName="opacity" dur="7s" values="1;1;1;1;1;1;1;1;1;0;1;1;1;1;1;1;1" repeatCount="indefinite" />
</g>
<g filter="url(#filter9_d_3917_66)" opacity="1">
<path d="M1015.24 254.96C1019.97 254.96 1023.35 258.728 1023.35 263.6C1023.35 268.472 1019.97 272.24 1015.24 272.24C1010.51 272.24 1007.15 268.472 1007.15 263.6C1007.15 258.728 1010.51 254.96 1015.24 254.96ZM1015.24 269.96C1018.55 269.96 1020.9 267.248 1020.9 263.6C1020.9 259.952 1018.55 257.24 1015.24 257.24C1011.93 257.24 1009.6 259.928 1009.6 263.6C1009.6 267.248 1011.93 269.96 1015.24 269.96ZM1031.28 259.112C1031.28 260.984 1029.7 262.016 1028.12 262.016C1027.2 262.016 1026.41 261.824 1025.93 261.488C1025.64 261.296 1025.5 261.056 1025.5 260.744C1025.5 260.288 1025.84 259.904 1026.32 259.904C1026.48 259.904 1026.6 259.928 1026.84 260.096C1027.04 260.216 1027.42 260.456 1027.97 260.456C1028.74 260.456 1029.51 260.024 1029.51 259.16C1029.51 258.464 1028.91 258.08 1028.14 258.08C1027.66 258.08 1027.32 258.32 1026.8 258.344C1026.41 258.368 1026.05 258.032 1026.05 257.624C1026.05 257.408 1026.1 257.144 1026.29 257L1028.55 255.032H1026.44C1025.96 255.032 1025.6 254.672 1025.6 254.216C1025.6 253.736 1025.96 253.424 1026.44 253.424H1030.01C1030.54 253.424 1030.92 253.784 1030.92 254.288C1030.95 254.552 1030.88 254.816 1030.68 254.96L1028.72 256.616C1030.4 256.64 1031.28 257.696 1031.28 259.112Z" fill="white"/>
<animate attributeName="opacity" dur="7s" values="1;1;1;1;1;1;1;1;1;1;0;1;1;1;1;1;1" repeatCount="indefinite" />
</g>
<g filter="url(#filter10_d_3917_66)" opacity="1">
<path d="M1126.24 135.96C1130.97 135.96 1134.35 139.728 1134.35 144.6C1134.35 149.472 1130.97 153.24 1126.24 153.24C1121.51 153.24 1118.15 149.472 1118.15 144.6C1118.15 139.728 1121.51 135.96 1126.24 135.96ZM1126.24 150.96C1129.55 150.96 1131.9 148.248 1131.9 144.6C1131.9 140.952 1129.55 138.24 1126.24 138.24C1122.93 138.24 1120.6 140.928 1120.6 144.6C1120.6 148.248 1122.93 150.96 1126.24 150.96ZM1142.28 140.112C1142.28 141.984 1140.7 143.016 1139.12 143.016C1138.2 143.016 1137.41 142.824 1136.93 142.488C1136.64 142.296 1136.5 142.056 1136.5 141.744C1136.5 141.288 1136.84 140.904 1137.32 140.904C1137.48 140.904 1137.6 140.928 1137.84 141.096C1138.04 141.216 1138.42 141.456 1138.97 141.456C1139.74 141.456 1140.51 141.024 1140.51 140.16C1140.51 139.464 1139.91 139.08 1139.14 139.08C1138.66 139.08 1138.32 139.32 1137.8 139.344C1137.41 139.368 1137.05 139.032 1137.05 138.624C1137.05 138.408 1137.1 138.144 1137.29 138L1139.55 136.032H1137.44C1136.96 136.032 1136.6 135.672 1136.6 135.216C1136.6 134.736 1136.96 134.424 1137.44 134.424H1141.01C1141.54 134.424 1141.92 134.784 1141.92 135.288C1141.95 135.552 1141.88 135.816 1141.68 135.96L1139.72 137.616C1141.4 137.64 1142.28 138.696 1142.28 140.112Z" fill="white"/>
<animate attributeName="opacity" dur="7s" values="1;1;1;1;1;1;1;1;1;1;1;0;1;1;1;1;1" repeatCount="indefinite" />
</g>
<g filter="url(#filter11_d_3917_66)" opacity="1">
<path d="M963.24 444.96C967.968 444.96 971.352 448.728 971.352 453.6C971.352 458.472 967.968 462.24 963.24 462.24C958.512 462.24 955.152 458.472 955.152 453.6C955.152 448.728 958.512 444.96 963.24 444.96ZM963.24 459.96C966.552 459.96 968.904 457.248 968.904 453.6C968.904 449.952 966.552 447.24 963.24 447.24C959.928 447.24 957.6 449.928 957.6 453.6C957.6 457.248 959.928 459.96 963.24 459.96ZM979.284 449.112C979.284 450.984 977.7 452.016 976.116 452.016C975.204 452.016 974.412 451.824 973.932 451.488C973.644 451.296 973.5 451.056 973.5 450.744C973.5 450.288 973.836 449.904 974.316 449.904C974.484 449.904 974.604 449.928 974.844 450.096C975.036 450.216 975.42 450.456 975.972 450.456C976.74 450.456 977.508 450.024 977.508 449.16C977.508 448.464 976.908 448.08 976.14 448.08C975.66 448.08 975.324 448.32 974.796 448.344C974.412 448.368 974.052 448.032 974.052 447.624C974.052 447.408 974.1 447.144 974.292 447L976.548 445.032H974.436C973.956 445.032 973.596 444.672 973.596 444.216C973.596 443.736 973.956 443.424 974.436 443.424H978.012C978.54 443.424 978.924 443.784 978.924 444.288C978.948 444.552 978.876 444.816 978.684 444.96L976.716 446.616C978.396 446.64 979.284 447.696 979.284 449.112Z" fill="white"/>
<animate attributeName="opacity" dur="7s" values="1;1;1;1;1;1;1;1;1;1;1;1;0;1;1;1;1" repeatCount="indefinite" />
</g>
<g filter="url(#filter12_d_3917_66)" opacity="1">
<path d="M1042.24 426.96C1046.97 426.96 1050.35 430.728 1050.35 435.6C1050.35 440.472 1046.97 444.24 1042.24 444.24C1037.51 444.24 1034.15 440.472 1034.15 435.6C1034.15 430.728 1037.51 426.96 1042.24 426.96ZM1042.24 441.96C1045.55 441.96 1047.9 439.248 1047.9 435.6C1047.9 431.952 1045.55 429.24 1042.24 429.24C1038.93 429.24 1036.6 431.928 1036.6 435.6C1036.6 439.248 1038.93 441.96 1042.24 441.96ZM1058.28 431.112C1058.28 432.984 1056.7 434.016 1055.12 434.016C1054.2 434.016 1053.41 433.824 1052.93 433.488C1052.64 433.296 1052.5 433.056 1052.5 432.744C1052.5 432.288 1052.84 431.904 1053.32 431.904C1053.48 431.904 1053.6 431.928 1053.84 432.096C1054.04 432.216 1054.42 432.456 1054.97 432.456C1055.74 432.456 1056.51 432.024 1056.51 431.16C1056.51 430.464 1055.91 430.08 1055.14 430.08C1054.66 430.08 1054.32 430.32 1053.8 430.344C1053.41 430.368 1053.05 430.032 1053.05 429.624C1053.05 429.408 1053.1 429.144 1053.29 429L1055.55 427.032H1053.44C1052.96 427.032 1052.6 426.672 1052.6 426.216C1052.6 425.736 1052.96 425.424 1053.44 425.424H1057.01C1057.54 425.424 1057.92 425.784 1057.92 426.288C1057.95 426.552 1057.88 426.816 1057.68 426.96L1055.72 428.616C1057.4 428.64 1058.28 429.696 1058.28 431.112Z" fill="white"/>
<animate attributeName="opacity" dur="7s" values="1;1;1;1;1;1;1;1;1;1;1;1;1;0;1;1;1" repeatCount="indefinite" />
</g>
<g filter="url(#filter13_d_3917_66)" opacity="1">
<path d="M850.24 75.96C854.968 75.96 858.352 79.728 858.352 84.6C858.352 89.472 854.968 93.24 850.24 93.24C845.512 93.24 842.152 89.472 842.152 84.6C842.152 79.728 845.512 75.96 850.24 75.96ZM850.24 90.96C853.552 90.96 855.904 88.248 855.904 84.6C855.904 80.952 853.552 78.24 850.24 78.24C846.928 78.24 844.6 80.928 844.6 84.6C844.6 88.248 846.928 90.96 850.24 90.96ZM866.284 80.112C866.284 81.984 864.7 83.016 863.116 83.016C862.204 83.016 861.412 82.824 860.932 82.488C860.644 82.296 860.5 82.056 860.5 81.744C860.5 81.288 860.836 80.904 861.316 80.904C861.484 80.904 861.604 80.928 861.844 81.096C862.036 81.216 862.42 81.456 862.972 81.456C863.74 81.456 864.508 81.024 864.508 80.16C864.508 79.464 863.908 79.08 863.14 79.08C862.66 79.08 862.324 79.32 861.796 79.344C861.412 79.368 861.052 79.032 861.052 78.624C861.052 78.408 861.1 78.144 861.292 78L863.548 76.032H861.436C860.956 76.032 860.596 75.672 860.596 75.216C860.596 74.736 860.956 74.424 861.436 74.424H865.012C865.54 74.424 865.924 74.784 865.924 75.288C865.948 75.552 865.876 75.816 865.684 75.96L863.716 77.616C865.396 77.64 866.284 78.696 866.284 80.112Z" fill="white"/>
<animate attributeName="opacity" dur="7s" values="1;1;1;1;1;1;1;1;1;1;1;1;1;1;0;1;1" repeatCount="indefinite" />
</g>
<g filter="url(#filter14_d_3917_66)" opacity="1">
<path d="M960.16 71.64C963.312 71.64 965.568 74.152 965.568 77.4C965.568 80.648 963.312 83.16 960.16 83.16C957.008 83.16 954.768 80.648 954.768 77.4C954.768 74.152 957.008 71.64 960.16 71.64ZM960.16 81.64C962.368 81.64 963.936 79.832 963.936 77.4C963.936 74.968 962.368 73.16 960.16 73.16C957.952 73.16 956.4 74.952 956.4 77.4C956.4 79.832 957.952 81.64 960.16 81.64ZM970.856 74.408C970.856 75.656 969.8 76.344 968.744 76.344C968.136 76.344 967.608 76.216 967.288 75.992C967.096 75.864 967 75.704 967 75.496C967 75.192 967.224 74.936 967.544 74.936C967.656 74.936 967.736 74.952 967.896 75.064C968.024 75.144 968.28 75.304 968.648 75.304C969.16 75.304 969.672 75.016 969.672 74.44C969.672 73.976 969.272 73.72 968.76 73.72C968.44 73.72 968.216 73.88 967.864 73.896C967.608 73.912 967.368 73.688 967.368 73.416C967.368 73.272 967.4 73.096 967.528 73L969.032 71.688H967.624C967.304 71.688 967.064 71.448 967.064 71.144C967.064 70.824 967.304 70.616 967.624 70.616H970.008C970.36 70.616 970.616 70.856 970.616 71.192C970.632 71.368 970.584 71.544 970.456 71.64L969.144 72.744C970.264 72.76 970.856 73.464 970.856 74.408Z" fill="white"/>
<animate attributeName="opacity" dur="7s" values="1;1;1;1;1;1;1;1;1;1;1;1;1;1;1;0;1" repeatCount="indefinite" />
</g>
<defs>
<filter id="filter0_d_3917_66" x="826.768" y="412.616" width="46.0878" height="42.544" filterUnits="userSpaceOnUse" color-interpolation-filters="sRGB">
<feFlood flood-opacity="0" result="BackgroundImageFix"/>
<feColorMatrix in="SourceAlpha" type="matrix" values="0 0 0 0 0 0 0 0 0 0 0 0 0 0 0 0 0 0 127 0" result="hardAlpha"/>
<feOffset/>
<feGaussianBlur stdDeviation="7.5"/>
<feComposite in2="hardAlpha" operator="out"/>
<feColorMatrix type="matrix" values="0 0 0 0 0 0 0 0 0 0.816667 0 0 0 0 1 0 0 0 1 0"/>
<feBlend mode="normal" in2="BackgroundImageFix" result="effect1_dropShadow_3917_66"/>
<feBlend mode="normal" in="SourceGraphic" in2="effect1_dropShadow_3917_66" result="shape"/>
</filter>
<filter id="filter1_d_3917_66" x="987.768" y="144.616" width="46.0878" height="42.544" filterUnits="userSpaceOnUse" color-interpolation-filters="sRGB">
<feFlood flood-opacity="0" result="BackgroundImageFix"/>
<feColorMatrix in="SourceAlpha" type="matrix" values="0 0 0 0 0 0 0 0 0 0 0 0 0 0 0 0 0 0 127 0" result="hardAlpha"/>
<feOffset/>
<feGaussianBlur stdDeviation="7.5"/>
<feComposite in2="hardAlpha" operator="out"/>
<feColorMatrix type="matrix" values="0 0 0 0 0 0 0 0 0 0.816667 0 0 0 0 1 0 0 0 1 0"/>
<feBlend mode="normal" in2="BackgroundImageFix" result="effect1_dropShadow_3917_66"/>
<feBlend mode="normal" in="SourceGraphic" in2="effect1_dropShadow_3917_66" result="shape"/>
</filter>
<filter id="filter2_d_3917_66" x="817.768" y="458.616" width="46.0878" height="42.544" filterUnits="userSpaceOnUse" color-interpolation-filters="sRGB">
<feFlood flood-opacity="0" result="BackgroundImageFix"/>
<feColorMatrix in="SourceAlpha" type="matrix" values="0 0 0 0 0 0 0 0 0 0 0 0 0 0 0 0 0 0 127 0" result="hardAlpha"/>
<feOffset/>
<feGaussianBlur stdDeviation="7.5"/>
<feComposite in2="hardAlpha" operator="out"/>
<feColorMatrix type="matrix" values="0 0 0 0 0 0 0 0 0 0.816667 0 0 0 0 1 0 0 0 1 0"/>
<feBlend mode="normal" in2="BackgroundImageFix" result="effect1_dropShadow_3917_66"/>
<feBlend mode="normal" in="SourceGraphic" in2="effect1_dropShadow_3917_66" result="shape"/>
</filter>
<filter id="filter3_d_3917_66" x="817.768" y="149.616" width="46.0878" height="42.544" filterUnits="userSpaceOnUse" color-interpolation-filters="sRGB">
<feFlood flood-opacity="0" result="BackgroundImageFix"/>
<feColorMatrix in="SourceAlpha" type="matrix" values="0 0 0 0 0 0 0 0 0 0 0 0 0 0 0 0 0 0 127 0" result="hardAlpha"/>
<feOffset/>
<feGaussianBlur stdDeviation="7.5"/>
<feComposite in2="hardAlpha" operator="out"/>
<feColorMatrix type="matrix" values="0 0 0 0 0 0 0 0 0 0.816667 0 0 0 0 1 0 0 0 1 0"/>
<feBlend mode="normal" in2="BackgroundImageFix" result="effect1_dropShadow_3917_66"/>
<feBlend mode="normal" in="SourceGraphic" in2="effect1_dropShadow_3917_66" result="shape"/>
</filter>
<filter id="filter4_d_3917_66" x="873.576" y="112.712" width="42.0658" height="39.408" filterUnits="userSpaceOnUse" color-interpolation-filters="sRGB">
<feFlood flood-opacity="0" result="BackgroundImageFix"/>
<feColorMatrix in="SourceAlpha" type="matrix" values="0 0 0 0 0 0 0 0 0 0 0 0 0 0 0 0 0 0 127 0" result="hardAlpha"/>
<feOffset/>
<feGaussianBlur stdDeviation="7.5"/>
<feComposite in2="hardAlpha" operator="out"/>
<feColorMatrix type="matrix" values="0 0 0 0 0 0 0 0 0 0.816667 0 0 0 0 1 0 0 0 1 0"/>
<feBlend mode="normal" in2="BackgroundImageFix" result="effect1_dropShadow_3917_66"/>
<feBlend mode="normal" in="SourceGraphic" in2="effect1_dropShadow_3917_66" result="shape"/>
</filter>
<filter id="filter5_d_3917_66" x="1076.15" y="306.424" width="54.1316" height="48.816" filterUnits="userSpaceOnUse" color-interpolation-filters="sRGB">
<feFlood flood-opacity="0" result="BackgroundImageFix"/>
<feColorMatrix in="SourceAlpha" type="matrix" values="0 0 0 0 0 0 0 0 0 0 0 0 0 0 0 0 0 0 127 0" result="hardAlpha"/>
<feOffset/>
<feGaussianBlur stdDeviation="7.5"/>
<feComposite in2="hardAlpha" operator="out"/>
<feColorMatrix type="matrix" values="0 0 0 0 0 0 0 0 0 0.816667 0 0 0 0 1 0 0 0 1 0"/>
<feBlend mode="normal" in2="BackgroundImageFix" result="effect1_dropShadow_3917_66"/>
<feBlend mode="normal" in="SourceGraphic" in2="effect1_dropShadow_3917_66" result="shape"/>
</filter>
<filter id="filter6_d_3917_66" x="898.152" y="162.424" width="54.1317" height="48.816" filterUnits="userSpaceOnUse" color-interpolation-filters="sRGB">
<feFlood flood-opacity="0" result="BackgroundImageFix"/>
<feColorMatrix in="SourceAlpha" type="matrix" values="0 0 0 0 0 0 0 0 0 0 0 0 0 0 0 0 0 0 127 0" result="hardAlpha"/>
<feOffset/>
<feGaussianBlur stdDeviation="7.5"/>
<feComposite in2="hardAlpha" operator="out"/>
<feColorMatrix type="matrix" values="0 0 0 0 0 0 0 0 0 0.816667 0 0 0 0 1 0 0 0 1 0"/>
<feBlend mode="normal" in2="BackgroundImageFix" result="effect1_dropShadow_3917_66"/>
<feBlend mode="normal" in="SourceGraphic" in2="effect1_dropShadow_3917_66" result="shape"/>
</filter>
<filter id="filter7_d_3917_66" x="955.768" y="286.616" width="46.0878" height="42.544" filterUnits="userSpaceOnUse" color-interpolation-filters="sRGB">
<feFlood flood-opacity="0" result="BackgroundImageFix"/>
<feColorMatrix in="SourceAlpha" type="matrix" values="0 0 0 0 0 0 0 0 0 0 0 0 0 0 0 0 0 0 127 0" result="hardAlpha"/>
<feOffset/>
<feGaussianBlur stdDeviation="7.5"/>
<feComposite in2="hardAlpha" operator="out"/>
<feColorMatrix type="matrix" values="0 0 0 0 0 0 0 0 0 0.816667 0 0 0 0 1 0 0 0 1 0"/>
<feBlend mode="normal" in2="BackgroundImageFix" result="effect1_dropShadow_3917_66"/>
<feBlend mode="normal" in="SourceGraphic" in2="effect1_dropShadow_3917_66" result="shape"/>
</filter>
<filter id="filter8_d_3917_66" x="804.152" y="335.424" width="54.1317" height="48.816" filterUnits="userSpaceOnUse" color-interpolation-filters="sRGB">
<feFlood flood-opacity="0" result="BackgroundImageFix"/>
<feColorMatrix in="SourceAlpha" type="matrix" values="0 0 0 0 0 0 0 0 0 0 0 0 0 0 0 0 0 0 127 0" result="hardAlpha"/>
<feOffset/>
<feGaussianBlur stdDeviation="7.5"/>
<feComposite in2="hardAlpha" operator="out"/>
<feColorMatrix type="matrix" values="0 0 0 0 0 0 0 0 0 0.816667 0 0 0 0 1 0 0 0 1 0"/>
<feBlend mode="normal" in2="BackgroundImageFix" result="effect1_dropShadow_3917_66"/>
<feBlend mode="normal" in="SourceGraphic" in2="effect1_dropShadow_3917_66" result="shape"/>
</filter>
<filter id="filter9_d_3917_66" x="992.152" y="238.424" width="54.1316" height="48.816" filterUnits="userSpaceOnUse" color-interpolation-filters="sRGB">
<feFlood flood-opacity="0" result="BackgroundImageFix"/>
<feColorMatrix in="SourceAlpha" type="matrix" values="0 0 0 0 0 0 0 0 0 0 0 0 0 0 0 0 0 0 127 0" result="hardAlpha"/>
<feOffset/>
<feGaussianBlur stdDeviation="7.5"/>
<feComposite in2="hardAlpha" operator="out"/>
<feColorMatrix type="matrix" values="0 0 0 0 0 0 0 0 0 0.816667 0 0 0 0 1 0 0 0 1 0"/>
<feBlend mode="normal" in2="BackgroundImageFix" result="effect1_dropShadow_3917_66"/>
<feBlend mode="normal" in="SourceGraphic" in2="effect1_dropShadow_3917_66" result="shape"/>
</filter>
<filter id="filter10_d_3917_66" x="1103.15" y="119.424" width="54.1316" height="48.816" filterUnits="userSpaceOnUse" color-interpolation-filters="sRGB">
<feFlood flood-opacity="0" result="BackgroundImageFix"/>
<feColorMatrix in="SourceAlpha" type="matrix" values="0 0 0 0 0 0 0 0 0 0 0 0 0 0 0 0 0 0 127 0" result="hardAlpha"/>
<feOffset/>
<feGaussianBlur stdDeviation="7.5"/>
<feComposite in2="hardAlpha" operator="out"/>
<feColorMatrix type="matrix" values="0 0 0 0 0 0 0 0 0 0.816667 0 0 0 0 1 0 0 0 1 0"/>
<feBlend mode="normal" in2="BackgroundImageFix" result="effect1_dropShadow_3917_66"/>
<feBlend mode="normal" in="SourceGraphic" in2="effect1_dropShadow_3917_66" result="shape"/>
</filter>
<filter id="filter11_d_3917_66" x="940.152" y="428.424" width="54.1317" height="48.816" filterUnits="userSpaceOnUse" color-interpolation-filters="sRGB">
<feFlood flood-opacity="0" result="BackgroundImageFix"/>
<feColorMatrix in="SourceAlpha" type="matrix" values="0 0 0 0 0 0 0 0 0 0 0 0 0 0 0 0 0 0 127 0" result="hardAlpha"/>
<feOffset/>
<feGaussianBlur stdDeviation="7.5"/>
<feComposite in2="hardAlpha" operator="out"/>
<feColorMatrix type="matrix" values="0 0 0 0 0 0 0 0 0 0.816667 0 0 0 0 1 0 0 0 1 0"/>
<feBlend mode="normal" in2="BackgroundImageFix" result="effect1_dropShadow_3917_66"/>
<feBlend mode="normal" in="SourceGraphic" in2="effect1_dropShadow_3917_66" result="shape"/>
</filter>
<filter id="filter12_d_3917_66" x="1019.15" y="410.424" width="54.1316" height="48.816" filterUnits="userSpaceOnUse" color-interpolation-filters="sRGB">
<feFlood flood-opacity="0" result="BackgroundImageFix"/>
<feColorMatrix in="SourceAlpha" type="matrix" values="0 0 0 0 0 0 0 0 0 0 0 0 0 0 0 0 0 0 127 0" result="hardAlpha"/>
<feOffset/>
<feGaussianBlur stdDeviation="7.5"/>
<feComposite in2="hardAlpha" operator="out"/>
<feColorMatrix type="matrix" values="0 0 0 0 0 0 0 0 0 0.816667 0 0 0 0 1 0 0 0 1 0"/>
<feBlend mode="normal" in2="BackgroundImageFix" result="effect1_dropShadow_3917_66"/>
<feBlend mode="normal" in="SourceGraphic" in2="effect1_dropShadow_3917_66" result="shape"/>
</filter>
<filter id="filter13_d_3917_66" x="827.152" y="59.424" width="54.1317" height="48.816" filterUnits="userSpaceOnUse" color-interpolation-filters="sRGB">
<feFlood flood-opacity="0" result="BackgroundImageFix"/>
<feColorMatrix in="SourceAlpha" type="matrix" values="0 0 0 0 0 0 0 0 0 0 0 0 0 0 0 0 0 0 127 0" result="hardAlpha"/>
<feOffset/>
<feGaussianBlur stdDeviation="7.5"/>
<feComposite in2="hardAlpha" operator="out"/>
<feColorMatrix type="matrix" values="0 0 0 0 0 0 0 0 0 0.816667 0 0 0 0 1 0 0 0 1 0"/>
<feBlend mode="normal" in2="BackgroundImageFix" result="effect1_dropShadow_3917_66"/>
<feBlend mode="normal" in="SourceGraphic" in2="effect1_dropShadow_3917_66" result="shape"/>
</filter>
<filter id="filter14_d_3917_66" x="939.768" y="55.616" width="46.0878" height="42.544" filterUnits="userSpaceOnUse" color-interpolation-filters="sRGB">
<feFlood flood-opacity="0" result="BackgroundImageFix"/>
<feColorMatrix in="SourceAlpha" type="matrix" values="0 0 0 0 0 0 0 0 0 0 0 0 0 0 0 0 0 0 127 0" result="hardAlpha"/>
<feOffset/>
<feGaussianBlur stdDeviation="7.5"/>
<feComposite in2="hardAlpha" operator="out"/>
<feColorMatrix type="matrix" values="0 0 0 0 0 0 0 0 0 0.816667 0 0 0 0 1 0 0 0 1 0"/>
<feBlend mode="normal" in2="BackgroundImageFix" result="effect1_dropShadow_3917_66"/>
<feBlend mode="normal" in="SourceGraphic" in2="effect1_dropShadow_3917_66" result="shape"/>
</filter>
</defs>
</svg>
