<svg width="1920" height="660" viewBox="0 0 1920 660" fill="none" xmlns="http://www.w3.org/2000/svg">
<g clip-path="url(#clip0_3888_214)">
<rect x="599" y="196" width="277" height="255" fill="url(#paint0_linear_3888_214)"/>
<path fill-rule="evenodd" clip-rule="evenodd" d="M960 520C1070.46 520 1160 430.457 1160 320C1160 209.543 1070.46 120 960 120C849.543 120 760 209.543 760 320C760 430.457 849.543 520 960 520ZM960 440C1026.27 440 1080 386.274 1080 320C1080 253.726 1026.27 200 960 200C893.726 200 840 253.726 840 320C840 386.274 893.726 440 960 440Z" fill="url(#paint1_linear_3888_214)"/>
<path fill-rule="evenodd" clip-rule="evenodd" d="M960 520C1070.46 520 1160 430.457 1160 320C1160 209.543 1070.46 120 960 120C849.543 120 760 209.543 760 320C760 430.457 849.543 520 960 520ZM960 440C1026.27 440 1080 386.274 1080 320C1080 253.726 1026.27 200 960 200C893.726 200 840 253.726 840 320C840 386.274 893.726 440 960 440Z" fill="url(#paint2_linear_3888_214)"/>
<path d="M925.195 408.984C953.884 408.984 983.903 396.926 1014.48 373.107C1029.45 361.451 1043.36 348.097 1056.81 335.164C1067.22 325.16 1077.98 314.821 1089.16 305.343C1120.33 278.918 1149.39 264.801 1178.01 262.181C1216.5 258.654 1252.69 276.088 1287.68 292.944C1317.6 307.357 1348.56 322.265 1381.47 324.68C1431.72 328.372 1478.54 302.961 1517.71 277.602C1524.07 273.482 1530.52 269.204 1536.76 265.097C1570.82 242.476 1606.03 219.112 1645.91 209.364C1691.42 198.235 1749.81 209.831 1773.36 253.507L1774.77 252.75C1750.84 208.351 1691.65 196.53 1645.53 207.804C1605.38 217.617 1570.05 241.061 1535.87 263.748C1529.63 267.881 1523.18 272.159 1516.83 276.253C1477.88 301.454 1431.37 326.714 1381.57 323.074C1348.96 320.685 1318.15 305.844 1288.36 291.483C1253.17 274.528 1216.81 257.008 1177.85 260.549C1148.89 263.182 1119.56 277.437 1088.12 304.086C1076.93 313.597 1066.13 323.956 1055.69 333.973C1042.27 346.867 1028.4 360.201 1013.49 371.811C982.014 396.327 951.173 408.26 921.871 407.292C891.247 406.272 855.081 386.33 848.381 351.349L846.808 351.651C853.66 387.435 890.569 407.845 921.838 408.911C922.938 408.97 924.063 408.984 925.195 408.984Z" fill="#05BAFF"/>
<path d="M1582.62 346.689C1591.49 346.703 1600.35 346.003 1609.12 344.596C1633.77 340.595 1657.25 330.775 1679.97 321.232C1684.09 319.507 1688.2 317.783 1692.31 316.091C1719.06 305.12 1747.82 295.136 1776.97 296.347C1809.08 297.702 1837.1 314.169 1848.38 338.298L1849.84 337.639C1838.31 312.972 1809.74 296.175 1777.04 294.76C1747.6 293.523 1718.62 303.573 1691.71 314.617C1687.58 316.309 1683.47 318.033 1679.35 319.757C1656.72 329.241 1633.32 339.048 1608.86 343.017C1546.28 353.172 1483.95 323.891 1442.5 300.98C1430.09 294.115 1417.6 286.777 1405.52 279.682C1367.74 257.496 1328.67 234.552 1285.95 222.495C1218.39 203.408 1142.1 213.583 1081.93 249.677C1066.58 258.891 1052.03 269.79 1037.95 280.34C1027.76 287.988 1017.22 295.892 1006.46 303.086C975.344 323.871 947.537 334.25 921.441 334.823C888.454 335.547 857.659 318.02 846.47 292.213L844.996 292.871C856.434 319.257 887.921 337.146 921.474 336.448C947.885 335.869 975.976 325.404 1007.35 304.442C1018.14 297.202 1028.71 289.304 1038.94 281.65C1052.98 271.119 1067.5 260.233 1082.78 251.072C1142.62 215.202 1218.43 205.106 1285.58 224.087C1328.09 236.092 1367.07 258.97 1404.77 281.117C1416.86 288.218 1429.35 295.557 1441.79 302.428C1477.52 322.166 1528.85 346.682 1582.62 346.689Z" fill="#B5F6FF"/>
<path d="M1426.37 458.938C1442.71 458.938 1458.28 455.917 1472.5 449.724C1510.74 433.138 1535.63 396.413 1554.93 362.643C1557.86 357.529 1560.75 352.356 1563.64 347.183C1580.41 317.171 1597.74 286.132 1624 263.774C1667.57 226.661 1733.41 219.283 1784.11 245.833L1784.86 244.411C1733.59 217.565 1667.01 225.028 1622.96 262.55C1596.48 285.098 1579.07 316.262 1562.24 346.399C1559.35 351.572 1556.46 356.732 1553.54 361.846C1534.36 395.373 1509.67 431.855 1471.86 448.249C1427.44 467.507 1369.44 455.627 1316.71 416.46C1293.31 399.078 1272.19 378.188 1251.76 357.99C1233.25 339.686 1214.11 320.764 1193.29 304.448C1168.28 284.868 1103.12 241.752 1037.75 264.261C1014.99 272.093 995.404 287.08 976.469 301.566L974.034 303.428C953.486 319.125 933.096 333.743 909.646 340.035C883.09 347.163 856.204 340.943 841.198 324.193L840 325.266C855.44 342.464 882.945 348.874 910.087 341.588C933.827 335.217 954.355 320.527 975.034 304.731L977.476 302.869C996.306 288.455 1015.79 273.554 1038.3 265.808C1102.93 243.556 1167.55 286.323 1192.31 305.738C1213.05 321.995 1232.16 340.891 1250.63 359.161C1271.1 379.399 1292.27 400.329 1315.76 417.777C1352.13 444.801 1391.04 458.931 1426.37 458.938Z" fill="#0096F9"/>
<path d="M1341.1 418.532C1413.9 418.532 1476.5 365.221 1517.72 324.475C1524.96 317.321 1532.3 309.89 1539.39 302.703C1581.91 259.607 1625.87 215.076 1682.78 195.153C1748.46 172.118 1824.67 187.005 1876.93 232.991L1877.99 231.78C1852.32 209.192 1820.23 193.607 1785.19 186.808C1750.16 180.009 1714.55 182.332 1682.28 193.633C1625.02 213.681 1580.92 258.35 1538.28 301.571C1531.19 308.751 1523.86 316.176 1516.62 323.29C1474.26 365.142 1409.25 420.368 1334.03 416.749C1295.59 414.879 1256.37 398.129 1210.54 364.037C1198.17 354.822 1185.95 344.95 1174.12 335.374C1151.02 316.689 1127.13 297.365 1101 282.201C1074.34 266.715 1021.78 243.087 969.497 258.863C938.32 268.268 912.165 290.455 889.09 309.962L844.993 347.339L846.033 348.563L890.13 311.187C913.086 291.745 939.103 269.723 969.958 260.403C1021.66 244.805 1073.75 268.235 1100.2 283.59C1126.22 298.728 1150.06 317.979 1173.11 336.624C1184.96 346.194 1197.18 356.093 1209.59 365.32C1255.66 399.623 1295.19 416.472 1333.98 418.348C1336.34 418.449 1338.71 418.51 1341.1 418.532Z" fill="#75E2FF"/>
<path d="M925.195 408.984C953.884 408.984 983.903 396.926 1014.48 373.107C1029.45 361.451 1043.36 348.097 1056.81 335.164C1067.22 325.16 1077.98 314.821 1089.16 305.343C1120.33 278.918 1149.39 264.801 1178.01 262.181C1216.5 258.654 1252.69 276.088 1287.68 292.944C1317.6 307.357 1348.56 322.265 1381.47 324.68C1431.72 328.372 1478.54 302.961 1517.71 277.602C1524.07 273.482 1530.52 269.204 1536.76 265.097C1570.82 242.476 1606.03 219.112 1645.91 209.364C1691.42 198.235 1749.81 209.831 1773.36 253.507L1774.77 252.75C1750.84 208.351 1691.65 196.53 1645.53 207.804C1605.38 217.617 1570.05 241.061 1535.87 263.748C1529.63 267.881 1523.18 272.159 1516.83 276.253C1477.88 301.454 1431.37 326.714 1381.57 323.074C1348.96 320.685 1318.15 305.844 1288.36 291.483C1253.17 274.528 1216.81 257.008 1177.85 260.549C1148.89 263.182 1119.56 277.437 1088.12 304.086C1076.93 313.597 1066.13 323.956 1055.69 333.973C1042.27 346.867 1028.4 360.201 1013.49 371.811C982.014 396.327 951.173 408.26 921.871 407.292C891.247 406.272 855.081 386.33 848.381 351.349L846.808 351.651C853.66 387.435 890.569 407.845 921.838 408.911C922.938 408.97 924.063 408.984 925.195 408.984Z" fill="#05BAFF"/>
<path d="M1582.62 346.689C1591.49 346.703 1600.35 346.003 1609.12 344.596C1633.77 340.595 1657.25 330.775 1679.97 321.232C1684.09 319.507 1688.2 317.783 1692.31 316.091C1719.06 305.12 1747.82 295.136 1776.97 296.347C1809.08 297.702 1837.1 314.169 1848.38 338.298L1849.84 337.639C1838.31 312.972 1809.74 296.175 1777.04 294.76C1747.6 293.523 1718.62 303.573 1691.71 314.617C1687.58 316.309 1683.47 318.033 1679.35 319.757C1656.72 329.241 1633.32 339.048 1608.86 343.017C1546.28 353.172 1483.95 323.891 1442.5 300.98C1430.09 294.115 1417.6 286.777 1405.52 279.682C1367.74 257.496 1328.67 234.552 1285.95 222.495C1218.39 203.408 1142.1 213.583 1081.93 249.677C1066.58 258.891 1052.03 269.79 1037.95 280.34C1027.76 287.988 1017.22 295.892 1006.46 303.086C975.344 323.871 947.537 334.25 921.441 334.823C888.454 335.547 857.659 318.02 846.47 292.213L844.996 292.871C856.434 319.257 887.921 337.146 921.474 336.448C947.885 335.869 975.976 325.404 1007.35 304.442C1018.14 297.202 1028.71 289.304 1038.94 281.65C1052.98 271.119 1067.5 260.233 1082.78 251.072C1142.62 215.202 1218.43 205.106 1285.58 224.087C1328.09 236.092 1367.07 258.97 1404.77 281.117C1416.86 288.218 1429.35 295.557 1441.79 302.428C1477.52 322.166 1528.85 346.682 1582.62 346.689Z" fill="#B5F6FF"/>
<path d="M1426.37 458.938C1442.71 458.938 1458.28 455.917 1472.5 449.724C1510.74 433.138 1535.63 396.413 1554.93 362.643C1557.86 357.529 1560.75 352.356 1563.64 347.183C1580.41 317.171 1597.74 286.132 1624 263.774C1667.57 226.661 1733.41 219.283 1784.11 245.833L1784.86 244.411C1733.59 217.565 1667.01 225.028 1622.96 262.55C1596.48 285.098 1579.07 316.262 1562.24 346.399C1559.35 351.572 1556.46 356.732 1553.54 361.846C1534.36 395.373 1509.67 431.855 1471.86 448.249C1427.44 467.507 1369.44 455.627 1316.71 416.46C1293.31 399.078 1272.19 378.188 1251.76 357.99C1233.25 339.686 1214.11 320.764 1193.29 304.448C1168.28 284.868 1103.12 241.752 1037.75 264.261C1014.99 272.093 995.404 287.08 976.469 301.566L974.034 303.428C953.486 319.125 933.096 333.743 909.646 340.035C883.09 347.163 856.204 340.943 841.198 324.193L840 325.266C855.44 342.464 882.945 348.874 910.087 341.588C933.827 335.217 954.355 320.527 975.034 304.731L977.476 302.869C996.306 288.455 1015.79 273.554 1038.3 265.808C1102.93 243.556 1167.55 286.323 1192.31 305.738C1213.05 321.995 1232.16 340.891 1250.63 359.161C1271.1 379.399 1292.27 400.329 1315.76 417.777C1352.13 444.801 1391.04 458.931 1426.37 458.938Z" fill="#0096F9"/>
<path d="M1341.1 418.532C1413.9 418.532 1476.5 365.221 1517.72 324.475C1524.96 317.321 1532.3 309.89 1539.39 302.703C1581.91 259.607 1625.87 215.076 1682.78 195.153C1748.46 172.118 1824.67 187.005 1876.93 232.991L1877.99 231.78C1852.32 209.192 1820.23 193.607 1785.19 186.808C1750.16 180.009 1714.55 182.332 1682.28 193.633C1625.02 213.681 1580.92 258.35 1538.28 301.571C1531.19 308.751 1523.86 316.176 1516.62 323.29C1474.26 365.142 1409.25 420.368 1334.03 416.749C1295.59 414.879 1256.37 398.129 1210.54 364.037C1198.17 354.822 1185.95 344.95 1174.12 335.374C1151.02 316.689 1127.13 297.365 1101 282.201C1074.34 266.715 1021.78 243.087 969.497 258.863C938.32 268.268 912.165 290.455 889.09 309.962L844.993 347.339L846.033 348.563L890.13 311.187C913.086 291.745 939.103 269.723 969.958 260.403C1021.66 244.805 1073.75 268.235 1100.2 283.59C1126.22 298.728 1150.06 317.979 1173.11 336.624C1184.96 346.194 1197.18 356.093 1209.59 365.32C1255.66 399.623 1295.19 416.472 1333.98 418.348C1336.34 418.449 1338.71 418.51 1341.1 418.532Z" fill="#75E2FF"/>
<path d="M1091.1 546.513C1091.1 542.659 1094.18 538.324 1098.54 538.324C1100.16 538.324 1101.78 538.645 1104.2 540.411C1108.08 543.944 1113.91 546.513 1121.02 546.513C1133.31 546.513 1144.47 537.361 1144.47 522.91C1144.47 508.138 1133.64 501.234 1122.48 501.234C1116.82 501.234 1113.91 503.321 1109.7 503.321C1105.66 503.321 1103.39 500.11 1103.39 496.256C1103.39 493.848 1104.2 492.242 1106.14 490.155L1133.64 460.13H1096.28C1092.07 460.13 1089 457.079 1089 452.904C1089 448.89 1092.07 446 1096.28 446H1147.71C1153.21 446 1155.63 449.693 1155.63 453.707C1155.63 455.794 1154.5 457.882 1152.72 459.648L1127.65 487.265C1146.09 487.425 1160 502.197 1160 521.946C1160 545.228 1142.53 560 1118.27 560C1110.03 560 1101.45 557.592 1095.47 553.096C1092.07 551.169 1091.1 548.761 1091.1 546.513Z" fill="url(#paint3_linear_3888_214)"/>
<circle cx="960" cy="319" r="120" fill="url(#paint4_linear_3888_214)"/>
<circle cx="960" cy="320" r="118" stroke="url(#paint5_linear_3888_214)" stroke-width="4"/>
</g>
<defs>
<linearGradient id="paint0_linear_3888_214" x1="756.876" y1="323.5" x2="599" y2="323.5" gradientUnits="userSpaceOnUse">
<stop/>
<stop offset="1" stop-opacity="0"/>
</linearGradient>
<linearGradient id="paint1_linear_3888_214" x1="1160" y1="120" x2="760" y2="520" gradientUnits="userSpaceOnUse">
<stop stop-color="#2B2B2B"/>
<stop offset="1"/>
</linearGradient>
<linearGradient id="paint2_linear_3888_214" x1="1160" y1="120" x2="760" y2="520" gradientUnits="userSpaceOnUse">
<stop stop-color="#2B2B2B"/>
<stop offset="1"/>
</linearGradient>
<linearGradient id="paint3_linear_3888_214" x1="1180.47" y1="552.676" x2="1148.38" y2="401.933" gradientUnits="userSpaceOnUse">
<stop stop-color="#2B2B2B"/>
<stop offset="1"/>
</linearGradient>
<linearGradient id="paint4_linear_3888_214" x1="840" y1="319" x2="1035" y2="319" gradientUnits="userSpaceOnUse">
<stop offset="0.05"/>
<stop offset="1" stop-opacity="0"/>
</linearGradient>
<linearGradient id="paint5_linear_3888_214" x1="1057" y1="247.5" x2="908" y2="361.5" gradientUnits="userSpaceOnUse">
<stop stop-opacity="0"/>
<stop offset="1" stop-color="#1E1E1E"/>
</linearGradient>
<clipPath id="clip0_3888_214">
<rect width="1920" height="660" fill="white"/>
</clipPath>
</defs>
</svg>
