<svg width="1920" height="660" viewBox="0 0 1920 660" fill="none" xmlns="http://www.w3.org/2000/svg">
<g clip-path="url(#clip0_3888_214)">
<g filter="url(#filter0_d_3888_214)">
<path d="M742.628 395.186C716.201 395.186 688.55 384.08 660.384 362.14C646.591 351.403 633.781 339.102 621.396 327.189C611.805 317.974 601.892 308.45 591.592 299.72C562.88 275.379 536.114 262.375 509.748 259.962C474.301 256.712 440.963 272.772 408.735 288.298C381.168 301.575 352.656 315.307 322.338 317.532C276.05 320.933 232.922 297.525 196.844 274.166C190.981 270.371 185.04 266.431 179.293 262.648C147.925 241.811 115.485 220.289 78.7519 211.31C36.8297 201.058 -16.957 211.741 -38.6426 251.972L-39.946 251.274C-17.9027 210.377 36.6235 199.488 79.1036 209.873C116.085 218.913 148.635 240.507 180.111 261.405C185.858 265.212 191.8 269.153 197.65 272.924C233.528 296.137 276.372 319.405 322.241 316.052C352.281 313.852 380.659 300.181 408.104 286.952C440.514 271.335 474.016 255.197 509.9 258.458C536.575 260.883 563.596 274.015 592.55 298.562C602.856 307.322 612.811 316.865 622.42 326.092C634.782 337.968 647.561 350.251 661.293 360.945C690.29 383.528 718.699 394.519 745.689 393.628C773.898 392.689 807.212 374.319 813.383 342.097L814.832 342.376C808.521 375.338 774.523 394.138 745.72 395.12C744.707 395.174 743.67 395.186 742.628 395.186Z" fill="#CEA476"/>
<path d="M143.408 337.805C135.234 337.817 127.072 337.172 119.001 335.877C96.2967 332.191 74.6595 323.145 53.7378 314.355C49.9427 312.766 46.1536 311.178 42.3645 309.62C17.7265 299.514 -8.76672 290.317 -35.6176 291.432C-65.1905 292.681 -91.0048 307.85 -101.39 330.075L-102.736 329.469C-92.1142 306.746 -65.7968 291.275 -35.6782 289.971C-8.56059 288.832 18.1327 298.089 42.9223 308.262C46.7235 309.82 50.5126 311.408 54.3077 312.997C75.1506 321.733 96.7089 330.766 119.237 334.422C176.88 343.776 234.298 316.804 272.473 295.7C283.907 289.377 295.414 282.618 306.545 276.082C341.344 255.645 377.331 234.511 416.676 223.405C478.914 205.824 549.185 215.196 604.614 248.443C618.752 256.931 632.156 266.97 645.118 276.688C654.509 283.733 664.221 291.014 674.133 297.64C702.791 316.786 728.405 326.346 752.443 326.874C782.828 327.541 811.195 311.396 821.501 287.625L822.859 288.231C812.322 312.536 783.319 329.014 752.412 328.371C728.084 327.838 702.209 318.198 673.309 298.889C663.366 292.221 653.636 284.946 644.209 277.895C631.277 268.195 617.903 258.167 603.826 249.728C548.706 216.688 478.878 207.388 417.022 224.872C377.864 235.93 341.962 257.003 307.236 277.404C296.099 283.945 284.586 290.705 273.134 297.034C240.215 315.216 192.933 337.799 143.408 337.805Z" fill="#CEA476"/>
<path d="M275.358 441.201C260.305 441.201 245.967 438.418 232.872 432.713C197.649 417.436 174.715 383.607 156.939 352.5C154.241 347.79 151.58 343.024 148.919 338.259C133.471 310.614 117.503 282.023 93.3192 261.429C53.1854 227.243 -7.46402 220.446 -54.1696 244.903L-54.8608 243.593C-7.62772 218.864 53.6946 225.739 94.2771 260.301C118.667 281.072 134.702 309.778 150.21 337.538C152.871 342.303 155.527 347.056 158.218 351.767C175.885 382.649 198.631 416.254 233.46 431.355C274.376 449.094 327.805 438.151 376.372 402.073C397.924 386.062 417.385 366.82 436.203 348.214C453.251 331.354 470.881 313.924 490.056 298.895C513.094 280.859 573.113 241.144 633.332 261.878C654.296 269.092 672.338 282.896 689.78 296.24L692.023 297.956C710.95 312.415 729.732 325.88 751.333 331.675C775.795 338.241 800.56 332.512 814.383 317.083L815.486 318.071C801.263 333.913 775.928 339.817 750.926 333.106C729.059 327.238 710.15 313.706 691.101 299.156L688.852 297.44C671.507 284.164 653.562 270.438 632.829 263.302C573.289 242.805 513.767 282.199 490.966 300.084C471.857 315.058 454.257 332.464 437.24 349.293C418.385 367.935 398.888 387.214 377.251 403.286C343.75 428.179 307.908 441.195 275.358 441.201Z" fill="#CEA476"/>
<path d="M382.55 415.957C315.492 415.957 257.832 366.85 219.862 329.317C213.193 322.727 206.428 315.883 199.898 309.262C160.734 269.565 120.243 228.546 67.8203 210.195C7.31637 188.976 -62.8815 202.69 -111.024 245.048L-112 243.933C-88.3562 223.126 -58.7893 208.77 -26.5185 202.508C5.75224 196.245 38.5504 198.385 68.281 208.794C121.025 227.261 161.644 268.407 200.917 308.22C207.452 314.834 214.2 321.672 220.868 328.226C259.887 366.778 319.778 417.648 389.061 414.314C424.466 412.592 460.599 397.163 502.812 365.759C514.209 357.271 525.467 348.178 536.362 339.357C557.641 322.145 579.648 304.346 603.71 290.378C628.276 276.113 676.685 254.348 724.845 268.88C753.563 277.543 777.656 297.98 798.911 315.949L839.53 350.378L838.572 351.506L797.953 317.077C776.807 299.168 752.842 278.883 724.421 270.299C676.794 255.93 628.815 277.513 604.45 291.657C580.485 305.601 558.526 323.334 537.289 340.509C526.377 349.324 515.119 358.442 503.691 366.941C461.253 398.539 424.842 414.059 389.109 415.787C386.935 415.88 384.748 415.936 382.55 415.957Z" fill="#CEA476"/>
</g>
<g filter="url(#filter1_d_3888_214)">
<path d="M742.628 395.186C716.201 395.186 688.55 384.08 660.384 362.14C646.591 351.403 633.781 339.102 621.396 327.189C611.805 317.974 601.892 308.45 591.592 299.72C562.88 275.379 536.114 262.375 509.748 259.962C474.301 256.712 440.963 272.772 408.735 288.298C381.168 301.575 352.656 315.307 322.338 317.532C276.05 320.933 232.922 297.525 196.844 274.166C190.981 270.371 185.04 266.431 179.293 262.648C147.925 241.811 115.485 220.289 78.7519 211.31C36.8297 201.058 -16.957 211.741 -38.6426 251.972L-39.946 251.274C-17.9027 210.377 36.6235 199.488 79.1036 209.873C116.085 218.913 148.635 240.507 180.111 261.405C185.858 265.212 191.8 269.153 197.65 272.924C233.528 296.137 276.372 319.405 322.241 316.052C352.281 313.852 380.659 300.181 408.104 286.952C440.514 271.335 474.016 255.197 509.9 258.458C536.575 260.883 563.596 274.015 592.55 298.562C602.856 307.322 612.811 316.865 622.42 326.092C634.782 337.968 647.561 350.251 661.293 360.945C690.29 383.528 718.699 394.519 745.689 393.628C773.898 392.689 807.212 374.319 813.383 342.097L814.832 342.376C808.521 375.338 774.523 394.138 745.72 395.12C744.707 395.174 743.67 395.186 742.628 395.186Z" fill="#CEA476"/>
<path d="M143.408 337.805C135.234 337.817 127.072 337.172 119.001 335.877C96.2967 332.191 74.6595 323.145 53.7378 314.355C49.9427 312.766 46.1536 311.178 42.3645 309.62C17.7265 299.514 -8.76672 290.317 -35.6176 291.432C-65.1905 292.681 -91.0048 307.85 -101.39 330.075L-102.736 329.469C-92.1142 306.746 -65.7968 291.275 -35.6782 289.971C-8.56059 288.832 18.1327 298.089 42.9223 308.262C46.7235 309.82 50.5126 311.408 54.3077 312.997C75.1506 321.733 96.7089 330.766 119.237 334.422C176.88 343.776 234.298 316.804 272.473 295.7C283.907 289.377 295.414 282.618 306.545 276.082C341.344 255.645 377.331 234.511 416.676 223.405C478.914 205.824 549.185 215.196 604.614 248.443C618.752 256.931 632.156 266.97 645.118 276.688C654.509 283.733 664.221 291.014 674.133 297.64C702.791 316.786 728.405 326.346 752.443 326.874C782.828 327.541 811.195 311.396 821.501 287.625L822.859 288.231C812.322 312.536 783.319 329.014 752.412 328.371C728.084 327.838 702.209 318.198 673.309 298.889C663.366 292.221 653.636 284.946 644.209 277.895C631.277 268.195 617.903 258.167 603.826 249.728C548.706 216.688 478.878 207.388 417.022 224.872C377.864 235.93 341.962 257.003 307.236 277.404C296.099 283.945 284.586 290.705 273.134 297.034C240.215 315.216 192.933 337.799 143.408 337.805Z" fill="#CEA476"/>
<path d="M275.358 441.201C260.305 441.201 245.967 438.418 232.872 432.713C197.649 417.436 174.715 383.607 156.939 352.5C154.241 347.79 151.58 343.024 148.919 338.259C133.471 310.614 117.503 282.023 93.3192 261.429C53.1854 227.243 -7.46402 220.446 -54.1696 244.903L-54.8608 243.593C-7.62772 218.864 53.6946 225.739 94.2771 260.301C118.667 281.072 134.702 309.778 150.21 337.538C152.871 342.303 155.527 347.056 158.218 351.767C175.885 382.649 198.631 416.254 233.46 431.355C274.376 449.094 327.805 438.151 376.372 402.073C397.924 386.062 417.385 366.82 436.203 348.214C453.251 331.354 470.881 313.924 490.056 298.895C513.094 280.859 573.113 241.144 633.332 261.878C654.296 269.092 672.338 282.896 689.78 296.24L692.023 297.956C710.95 312.415 729.732 325.88 751.333 331.675C775.795 338.241 800.56 332.512 814.383 317.083L815.486 318.071C801.263 333.913 775.928 339.817 750.926 333.106C729.059 327.238 710.15 313.706 691.101 299.156L688.852 297.44C671.507 284.164 653.562 270.438 632.829 263.302C573.289 242.805 513.767 282.199 490.966 300.084C471.857 315.058 454.257 332.464 437.24 349.293C418.385 367.935 398.888 387.214 377.251 403.286C343.75 428.179 307.908 441.195 275.358 441.201Z" fill="#CEA476"/>
<path d="M382.55 415.957C315.492 415.957 257.832 366.85 219.862 329.317C213.193 322.727 206.428 315.883 199.898 309.262C160.734 269.565 120.243 228.546 67.8203 210.195C7.31637 188.976 -62.8815 202.69 -111.024 245.048L-112 243.933C-88.3562 223.126 -58.7893 208.77 -26.5185 202.508C5.75224 196.245 38.5504 198.385 68.281 208.794C121.025 227.261 161.644 268.407 200.917 308.22C207.452 314.834 214.2 321.672 220.868 328.226C259.887 366.778 319.778 417.648 389.061 414.314C424.466 412.592 460.599 397.163 502.812 365.759C514.209 357.271 525.467 348.178 536.362 339.357C557.641 322.145 579.648 304.346 603.71 290.378C628.276 276.113 676.685 254.348 724.845 268.88C753.563 277.543 777.656 297.98 798.911 315.949L839.53 350.378L838.572 351.506L797.953 317.077C776.807 299.168 752.842 278.883 724.421 270.299C676.794 255.93 628.815 277.513 604.45 291.657C580.485 305.601 558.526 323.334 537.289 340.509C526.377 349.324 515.119 358.442 503.691 366.941C461.253 398.539 424.842 414.059 389.109 415.787C386.935 415.88 384.748 415.936 382.55 415.957Z" fill="#CEA476"/>
</g>
</g>
<defs>
<filter id="filter0_d_3888_214" x="-116" y="199" width="959.53" height="250.201" filterUnits="userSpaceOnUse" color-interpolation-filters="sRGB">
<feFlood flood-opacity="0" result="BackgroundImageFix"/>
<feColorMatrix in="SourceAlpha" type="matrix" values="0 0 0 0 0 0 0 0 0 0 0 0 0 0 0 0 0 0 127 0" result="hardAlpha"/>
<feOffset dy="4"/>
<feGaussianBlur stdDeviation="2"/>
<feComposite in2="hardAlpha" operator="out"/>
<feColorMatrix type="matrix" values="0 0 0 0 0 0 0 0 0 0 0 0 0 0 0 0 0 0 0.25 0"/>
<feBlend mode="normal" in2="BackgroundImageFix" result="effect1_dropShadow_3888_214"/>
<feBlend mode="normal" in="SourceGraphic" in2="effect1_dropShadow_3888_214" result="shape"/>
</filter>
<filter id="filter1_d_3888_214" x="-116" y="199" width="959.53" height="250.201" filterUnits="userSpaceOnUse" color-interpolation-filters="sRGB">
<feFlood flood-opacity="0" result="BackgroundImageFix"/>
<feColorMatrix in="SourceAlpha" type="matrix" values="0 0 0 0 0 0 0 0 0 0 0 0 0 0 0 0 0 0 127 0" result="hardAlpha"/>
<feOffset dy="4"/>
<feGaussianBlur stdDeviation="2"/>
<feComposite in2="hardAlpha" operator="out"/>
<feColorMatrix type="matrix" values="0 0 0 0 0 0 0 0 0 0 0 0 0 0 0 0 0 0 0.25 0"/>
<feBlend mode="normal" in2="BackgroundImageFix" result="effect1_dropShadow_3888_214"/>
<feBlend mode="normal" in="SourceGraphic" in2="effect1_dropShadow_3888_214" result="shape"/>
</filter>
<clipPath id="clip0_3888_214">
<rect width="1920" height="660" fill="white"/>
</clipPath>
</defs>
</svg>
