<svg width="1168" height="166" viewBox="0 0 1168 166" fill="none" xmlns="http://www.w3.org/2000/svg">
<g clip-path="url(#clip0_3889_666)">
<g filter="url(#filter0_d_3889_666)">
<path d="M506.446 99.8538C498.114 99.8538 489.396 96.3521 480.516 89.4347C476.167 86.0497 472.129 82.1714 468.224 78.4155C465.2 75.5102 462.075 72.5074 458.827 69.755C449.775 62.0807 441.336 57.9807 433.023 57.22C421.847 56.1955 411.336 61.2588 401.175 66.1539C392.484 70.3399 383.495 74.6692 373.936 75.3707C359.343 76.443 345.745 69.063 334.37 61.6984C332.522 60.5019 330.649 59.2595 328.837 58.0668C318.947 51.4973 308.719 44.7118 297.138 41.881C283.921 38.6488 266.963 42.0167 260.126 54.7008L259.715 54.481C266.664 41.5867 283.856 38.1538 297.249 41.428C308.908 44.2779 319.171 51.0863 329.095 57.6749C330.907 58.8753 332.78 60.1177 334.624 61.3066C345.936 68.6253 359.444 75.9613 373.906 74.9043C383.376 74.2104 392.324 69.9002 400.977 65.7296C411.195 60.8058 421.757 55.7177 433.071 56.746C441.481 57.5105 450 61.6506 459.129 69.3899C462.378 72.1519 465.517 75.1604 468.547 78.0696C472.444 81.814 476.473 85.6865 480.802 89.0582C489.945 96.1782 498.902 99.6436 507.411 99.3626C516.305 99.0663 526.808 93.2748 528.754 83.1157L529.211 83.2036C527.221 93.5959 516.502 99.5231 507.421 99.8328C507.101 99.85 506.775 99.8538 506.446 99.8538Z" fill="#CEA476"/>
<path d="M317.525 81.7625C314.948 81.7664 312.374 81.5632 309.83 81.1546C302.672 79.9925 295.85 77.1407 289.254 74.3692C288.057 73.8684 286.862 73.3676 285.668 72.8764C277.9 69.6901 269.547 66.7905 261.081 67.1422C251.758 67.5359 243.619 72.3182 240.345 79.3254L239.92 79.1343C243.269 71.9704 251.566 67.0925 261.062 66.6815C269.612 66.3222 278.028 69.2409 285.844 72.4482C287.042 72.9394 288.237 73.4402 289.433 73.941C296.005 76.6954 302.802 79.5433 309.904 80.6959C328.078 83.6452 346.181 75.1414 358.217 68.4878C361.822 66.4942 365.45 64.363 368.959 62.3025C379.93 55.8592 391.276 49.196 403.681 45.6943C423.304 40.1513 445.459 43.1063 462.935 53.5884C467.392 56.2644 471.618 59.4297 475.705 62.4936C478.666 64.7147 481.728 67.0103 484.853 69.0994C493.888 75.1356 501.964 78.1499 509.542 78.3162C519.122 78.5265 528.066 73.4364 531.315 65.9418L531.743 66.1329C528.421 73.7957 519.277 78.9909 509.533 78.7883C501.862 78.6201 493.705 75.581 484.593 69.4932C481.458 67.3907 478.39 65.097 475.418 62.874C471.341 59.8158 467.125 56.6543 462.686 53.9936C445.308 43.5765 423.292 40.6444 403.79 46.1569C391.445 49.6433 380.125 56.2873 369.177 62.7192C365.666 64.7816 362.036 66.9128 358.425 68.9083C348.046 74.6406 333.139 81.7605 317.525 81.7625Z" fill="#CEA476"/>
<path d="M359.132 114.361C354.386 114.361 349.865 113.484 345.737 111.685C334.631 106.869 327.4 96.2031 321.796 86.3957C320.946 84.9105 320.107 83.4082 319.267 81.9058C314.397 73.1898 309.363 64.1757 301.738 57.6826C289.085 46.9043 269.963 44.7616 255.237 52.4722L255.02 52.0593C269.911 44.2627 289.245 46.4302 302.04 57.3271C309.73 63.8756 314.785 72.9261 319.675 81.6784C320.514 83.1807 321.351 84.6793 322.2 86.1644C327.769 95.9011 334.941 106.496 345.922 111.257C358.822 116.85 375.667 113.4 390.979 102.025C397.774 96.9772 403.91 90.9104 409.843 85.0443C415.218 79.7287 420.776 74.2335 426.822 69.4951C434.085 63.8087 453.008 51.2871 471.994 57.8241C478.604 60.0987 484.292 64.4509 489.791 68.6579L490.498 69.1988C496.466 73.7575 502.387 78.0027 509.198 79.83C516.91 81.9001 524.718 80.0938 529.076 75.2293L529.424 75.5409C524.94 80.5354 516.952 82.397 509.07 80.2811C502.175 78.4309 496.213 74.1646 490.208 69.5773L489.499 69.0364C484.03 64.8504 478.372 60.523 471.835 58.2733C453.064 51.8108 434.297 64.2311 427.109 69.8697C421.084 74.5909 415.535 80.0785 410.17 85.3846C404.225 91.2621 398.078 97.3404 391.257 102.408C380.694 110.256 369.394 114.359 359.132 114.361Z" fill="#CEA476"/>
<path d="M392.922 106.402C371.78 106.402 353.601 90.9201 341.63 79.0866C339.528 77.0089 337.394 74.851 335.336 72.7637C322.988 60.2479 310.222 47.3153 293.694 41.5295C274.618 34.8396 252.486 39.1632 237.308 52.5182L237 52.1665C244.454 45.6066 253.776 41.0804 263.951 39.1059C274.125 37.1314 284.466 37.8061 293.839 41.088C310.468 46.9101 323.275 59.8828 335.657 72.435C337.717 74.5203 339.845 76.6764 341.947 78.7426C354.249 90.8972 373.132 106.936 394.975 105.884C406.138 105.342 417.53 100.477 430.839 90.5761C434.432 87.9001 437.982 85.033 441.417 82.2519C448.126 76.8255 455.064 71.2136 462.65 66.8097C470.395 62.3122 485.658 55.4503 500.842 60.0319C509.896 62.7633 517.492 69.2066 524.194 74.872L537 85.7268L536.698 86.0824L523.892 75.2275C517.225 69.5813 509.669 63.1857 500.708 60.4792C485.692 55.9491 470.565 62.7537 462.884 67.213C455.328 71.6092 448.405 77.2001 441.709 82.6151C438.269 85.3943 434.719 88.269 431.116 90.9488C417.736 100.911 406.256 105.804 394.991 106.349C394.305 106.378 393.616 106.396 392.922 106.402Z" fill="#CEA476"/>
</g>
<rect x="473" y="1" width="56" height="150" fill="url(#paint0_linear_3889_666)"/>
<circle cx="583.851" cy="75.851" r="74.851" fill="url(#paint1_linear_3889_666)"/>
<circle cx="583.848" cy="75.851" r="42.9106" fill="black" stroke="url(#paint2_linear_3889_666)" stroke-width="4"/>
<path d="M633.004 160.647C633.004 159.211 634.164 157.596 635.812 157.596C636.422 157.596 637.032 157.716 637.948 158.374C639.412 159.69 641.609 160.647 644.295 160.647C648.933 160.647 653.144 157.237 653.144 151.853C653.144 146.349 649.055 143.777 644.844 143.777C642.708 143.777 641.609 144.554 640.023 144.554C638.497 144.554 637.643 143.358 637.643 141.922C637.643 141.025 637.948 140.427 638.68 139.649L649.055 128.462H634.957C633.37 128.462 632.211 127.325 632.211 125.77C632.211 124.274 633.37 123.197 634.957 123.197H654.365C656.44 123.197 657.355 124.573 657.355 126.069C657.355 126.847 656.928 127.624 656.257 128.282L646.797 138.572C653.754 138.632 659.003 144.136 659.003 151.494C659.003 160.168 652.412 165.672 643.257 165.672C640.145 165.672 636.91 164.775 634.652 163.1C633.37 162.382 633.004 161.485 633.004 160.647Z" fill="url(#paint3_linear_3889_666)"/>
<path d="M572.622 103.314C580.914 103.314 589.59 99.8292 598.427 92.9451C602.755 89.5763 606.774 85.7167 610.66 81.9788C613.669 79.0875 616.78 76.0991 620.011 73.3599C629.02 65.7225 637.418 61.6423 645.691 60.8852C656.813 59.8656 667.273 64.9046 677.385 69.7761C686.035 73.942 694.981 78.2505 704.494 78.9486C719.017 80.0157 732.549 72.6713 743.869 65.3421C745.709 64.1513 747.573 62.9148 749.376 61.7279C759.218 55.1899 769.397 48.4371 780.922 45.6199C794.076 42.4033 810.952 45.755 817.756 58.3781L818.165 58.1593C811.249 45.327 794.14 41.9106 780.812 45.1691C769.208 48.0053 758.995 54.781 749.119 61.3379C747.316 62.5325 745.452 63.7689 743.616 64.9521C732.359 72.2357 718.916 79.5364 704.524 78.4845C695.099 77.7939 686.194 73.5045 677.583 69.3538C667.414 64.4537 656.903 59.39 645.643 60.4134C637.274 61.1743 628.796 65.2945 619.711 72.9966C616.477 75.7453 613.354 78.7394 610.339 81.6345C606.46 85.361 602.45 89.2149 598.142 92.5704C589.044 99.6561 580.13 103.105 571.661 102.825C562.81 102.53 552.358 96.7666 550.421 86.6564L549.967 86.7439C551.947 97.0862 562.614 102.985 571.652 103.293C571.969 103.31 572.295 103.314 572.622 103.314Z" fill="#05BAFF"/>
<path d="M762.634 85.3096C765.199 85.3135 767.76 85.1112 770.293 84.7047C777.416 83.5481 784.205 80.71 790.77 77.9518C791.961 77.4534 793.149 76.955 794.338 76.4662C802.069 73.2952 810.381 70.4095 818.806 70.7595C828.085 71.1514 836.185 75.9107 839.443 82.8842L839.866 82.694C836.533 75.5645 828.275 70.7101 818.825 70.3011C810.317 69.9435 801.941 72.8482 794.163 76.0401C792.971 76.5289 791.782 77.0273 790.591 77.5257C784.051 80.2668 777.287 83.1011 770.219 84.2481C752.132 87.1833 734.117 78.7203 722.139 72.0987C718.551 70.1147 714.941 67.9937 711.448 65.9431C700.53 59.5308 689.238 52.8996 676.893 49.4148C657.365 43.8984 635.317 46.8392 617.925 57.2709C613.489 59.934 609.283 63.0841 605.216 66.1334C602.27 68.3437 599.222 70.6283 596.112 72.7074C587.121 78.7146 579.084 81.7144 571.542 81.8799C562.008 82.0891 553.108 77.0235 549.874 69.5649L549.448 69.7552C552.754 77.3811 561.854 82.5514 571.551 82.3497C579.185 82.1823 587.303 79.1578 596.371 73.0993C599.491 71.0068 602.544 68.7242 605.502 66.5119C609.559 63.4683 613.755 60.3221 618.172 57.6742C635.467 47.3071 657.376 44.3891 676.785 49.8751C689.071 53.3448 700.336 59.9569 711.231 66.3578C714.726 68.4103 718.338 70.5313 721.931 72.5172C732.26 78.2219 747.095 85.3077 762.634 85.3096Z" fill="#B5F6FF"/>
<path d="M717.472 117.752C722.196 117.752 726.694 116.878 730.803 115.089C741.855 110.295 749.051 99.6806 754.628 89.9203C755.474 88.4423 756.31 86.9471 757.145 85.452C761.991 76.7779 767.002 67.8071 774.59 61.3452C787.182 50.6187 806.212 48.4863 820.866 56.1598L821.083 55.7489C806.263 47.9898 787.022 50.1469 774.289 60.9914C766.637 67.5084 761.605 76.5154 756.739 85.2256C755.904 86.7208 755.071 88.2121 754.227 89.6901C748.684 99.38 741.547 109.924 730.618 114.662C717.781 120.228 701.017 116.795 685.778 105.475C679.016 100.451 672.91 94.4133 667.005 88.5754C661.656 83.2854 656.125 77.8165 650.108 73.1009C642.88 67.4418 624.048 54.9804 605.153 61.486C598.576 63.7496 592.915 68.081 587.442 72.2678L586.738 72.8061C580.8 77.3429 574.907 81.5677 568.129 83.3862C560.454 85.4463 552.683 83.6487 548.346 78.8076L548 79.1176C552.463 84.0881 560.412 85.9409 568.256 83.8351C575.118 81.9938 581.051 77.748 587.027 73.1827L587.733 72.6444C593.175 68.4785 598.806 64.1719 605.311 61.933C623.993 55.5016 642.669 67.8622 649.823 73.4738C655.818 78.1722 661.34 83.6335 666.68 88.914C672.596 94.7633 678.713 100.812 685.502 105.855C696.014 113.666 707.26 117.75 717.472 117.752Z" fill="#0096F9"/>
<path d="M692.828 106.074C713.869 106.074 731.96 90.6658 743.874 78.8892C745.966 76.8215 748.089 74.6739 750.138 72.5967C762.426 60.141 775.131 47.2706 791.579 41.5126C810.563 34.8548 832.588 39.1576 847.694 52.4484L848 52.0984C840.581 45.57 831.304 41.0656 821.179 39.1006C811.054 37.1356 800.763 37.8071 791.434 41.0732C774.885 46.8673 762.141 59.7776 749.818 72.2695C747.768 74.3448 745.65 76.4905 743.558 78.5468C731.315 90.643 712.524 106.604 690.785 105.558C679.677 105.018 668.339 100.177 655.094 90.3234C651.518 87.6603 647.986 84.807 644.568 82.0393C637.891 76.6389 630.986 71.054 623.436 66.6713C615.728 62.1954 600.539 55.3664 585.428 59.926C576.418 62.6443 568.858 69.0566 562.189 74.6948L549.445 85.4975L549.745 85.8513L562.49 75.0486C569.125 69.4295 576.644 63.0647 585.562 60.3711C600.505 55.8629 615.559 62.6348 623.204 67.0726C630.723 71.4477 637.613 77.0117 644.277 82.4007C647.701 85.1665 651.233 88.0274 654.819 90.6943C668.134 100.609 679.559 105.478 690.77 106.02C691.452 106.05 692.138 106.067 692.828 106.074Z" fill="#75E2FF"/>
<circle cx="583" cy="76" r="39" fill="url(#paint4_linear_3889_666)"/>
</g>
<defs>
<filter id="filter0_d_3889_666" x="233" y="38" width="308" height="84.3614" filterUnits="userSpaceOnUse" color-interpolation-filters="sRGB">
<feFlood flood-opacity="0" result="BackgroundImageFix"/>
<feColorMatrix in="SourceAlpha" type="matrix" values="0 0 0 0 0 0 0 0 0 0 0 0 0 0 0 0 0 0 127 0" result="hardAlpha"/>
<feOffset dy="4"/>
<feGaussianBlur stdDeviation="2"/>
<feComposite in2="hardAlpha" operator="out"/>
<feColorMatrix type="matrix" values="0 0 0 0 0 0 0 0 0 0 0 0 0 0 0 0 0 0 0.25 0"/>
<feBlend mode="normal" in2="BackgroundImageFix" result="effect1_dropShadow_3889_666"/>
<feBlend mode="normal" in="SourceGraphic" in2="effect1_dropShadow_3889_666" result="shape"/>
</filter>
<linearGradient id="paint0_linear_3889_666" x1="504.917" y1="76" x2="473" y2="76" gradientUnits="userSpaceOnUse">
<stop/>
<stop offset="1" stop-opacity="0"/>
</linearGradient>
<linearGradient id="paint1_linear_3889_666" x1="658.702" y1="1" x2="509" y2="150.702" gradientUnits="userSpaceOnUse">
<stop stop-color="#2B2B2B"/>
<stop offset="1"/>
</linearGradient>
<linearGradient id="paint2_linear_3889_666" x1="660.196" y1="12.9762" x2="543.054" y2="113.277" gradientUnits="userSpaceOnUse">
<stop/>
<stop offset="1" stop-color="#1E1E1E"/>
</linearGradient>
<linearGradient id="paint3_linear_3889_666" x1="666.727" y1="162.943" x2="654.909" y2="106.717" gradientUnits="userSpaceOnUse">
<stop stop-color="#2B2B2B"/>
<stop offset="1"/>
</linearGradient>
<linearGradient id="paint4_linear_3889_666" x1="544" y1="76" x2="607.375" y2="76" gradientUnits="userSpaceOnUse">
<stop offset="0.05"/>
<stop offset="1" stop-opacity="0"/>
</linearGradient>
<clipPath id="clip0_3889_666">
<rect width="1168" height="166" fill="white"/>
</clipPath>
</defs>
</svg>
