<svg width="320" height="700" viewBox="0 0 320 700" fill="none" xmlns="http://www.w3.org/2000/svg">
    <g opacity="1">
        <path d="M105.19 519.22C106.953 519.22 108.215 520.625 108.215 522.442C108.215 524.258 106.953 525.663 105.19 525.663C103.427 525.663 102.175 524.258 102.175 522.442C102.175 520.625 103.427 519.22 105.19 519.22ZM105.19 524.813C106.425 524.813 107.302 523.802 107.302 522.442C107.302 521.082 106.425 520.07 105.19 520.07C103.955 520.07 103.087 521.073 103.087 522.442C103.087 523.802 103.955 524.813 105.19 524.813Z" fill="white"/>
        <path d="M111.172 520.768C111.172 521.466 110.581 521.851 109.991 521.851C109.651 521.851 109.355 521.78 109.176 521.654C109.069 521.583 109.015 521.493 109.015 521.377C109.015 521.207 109.14 521.064 109.319 521.064C109.382 521.064 109.427 521.073 109.516 521.135C109.588 521.18 109.731 521.269 109.937 521.269C110.223 521.269 110.51 521.108 110.51 520.786C110.51 520.527 110.286 520.384 109.999 520.384C109.821 520.384 109.695 520.473 109.498 520.482C109.355 520.491 109.221 520.366 109.221 520.214C109.221 520.133 109.239 520.035 109.311 519.981L110.152 519.247H109.364C109.185 519.247 109.051 519.113 109.051 518.943C109.051 518.764 109.185 518.648 109.364 518.648H110.697C110.894 518.648 111.037 518.782 111.037 518.97C111.046 519.068 111.02 519.167 110.948 519.22L110.214 519.838C110.841 519.847 111.172 520.24 111.172 520.768Z" fill="white"/>
        <animate attributeName="opacity" dur="7s" values="1;0;1;1;1;1;1;1;1;1;1;1;1;1;1;1" repeatCount="indefinite" />
    </g>
    <g opacity="1">
        <path d="M195.227 369.345C196.99 369.345 198.252 370.75 198.252 372.566C198.252 374.382 196.99 375.787 195.227 375.787C193.465 375.787 192.212 374.382 192.212 372.566C192.212 370.75 193.465 369.345 195.227 369.345ZM195.227 374.937C196.462 374.937 197.339 373.926 197.339 372.566C197.339 371.206 196.462 370.195 195.227 370.195C193.993 370.195 193.125 371.197 193.125 372.566C193.125 373.926 193.993 374.937 195.227 374.937Z" fill="white"/>
        <path d="M201.209 370.893C201.209 371.591 200.618 371.975 200.028 371.975C199.688 371.975 199.392 371.904 199.214 371.779C199.106 371.707 199.052 371.618 199.052 371.501C199.052 371.331 199.178 371.188 199.357 371.188C199.419 371.188 199.464 371.197 199.554 371.26C199.625 371.304 199.768 371.394 199.974 371.394C200.26 371.394 200.547 371.233 200.547 370.911C200.547 370.651 200.323 370.508 200.037 370.508C199.858 370.508 199.733 370.597 199.536 370.606C199.392 370.615 199.258 370.49 199.258 370.338C199.258 370.257 199.276 370.159 199.348 370.105L200.189 369.372H199.401C199.222 369.372 199.088 369.237 199.088 369.067C199.088 368.888 199.222 368.772 199.401 368.772H200.735C200.931 368.772 201.075 368.906 201.075 369.094C201.084 369.193 201.057 369.291 200.985 369.345L200.251 369.962C200.878 369.971 201.209 370.365 201.209 370.893Z" fill="white"/>
        <animate attributeName="opacity" dur="7s" values="1;1;0;1;1;1;1;1;1;1;1;1;1;1;1;1" repeatCount="indefinite" />
    </g>
    <g opacity="1">
        <path d="M28.0154 335.791C29.7781 335.791 31.0398 337.195 31.0398 339.012C31.0398 340.828 29.7781 342.233 28.0154 342.233C26.2527 342.233 25 340.828 25 339.012C25 337.195 26.2527 335.791 28.0154 335.791ZM28.0154 341.383C29.2502 341.383 30.1271 340.372 30.1271 339.012C30.1271 337.652 29.2502 336.641 28.0154 336.641C26.7806 336.641 25.9127 337.643 25.9127 339.012C25.9127 340.372 26.7806 341.383 28.0154 341.383Z" fill="white"/>
        <path d="M33.9969 337.339C33.9969 338.036 33.4063 338.421 32.8158 338.421C32.4757 338.421 32.1805 338.35 32.0015 338.224C31.8941 338.153 31.8405 338.063 31.8405 337.947C31.8405 337.777 31.9657 337.634 32.1447 337.634C32.2073 337.634 32.2521 337.643 32.3415 337.705C32.4131 337.75 32.5563 337.84 32.7621 337.84C33.0484 337.84 33.3347 337.679 33.3347 337.356C33.3347 337.097 33.111 336.954 32.8247 336.954C32.6458 336.954 32.5205 337.043 32.3236 337.052C32.1805 337.061 32.0463 336.936 32.0463 336.784C32.0463 336.703 32.0641 336.605 32.1357 336.551L32.9768 335.817H32.1894C32.0105 335.817 31.8762 335.683 31.8762 335.513C31.8762 335.334 32.0105 335.218 32.1894 335.218H33.5226C33.7195 335.218 33.8627 335.352 33.8627 335.54C33.8716 335.638 33.8448 335.737 33.7732 335.791L33.0395 336.408C33.6658 336.417 33.9969 336.811 33.9969 337.339Z" fill="white"/>
        <animate attributeName="opacity" dur="7s" values="1;1;1;0;1;1;1;1;1;1;1;1;1;1;1;1" repeatCount="indefinite" />
    </g>
    <g opacity="1">
        <path d="M130.613 351.36C131.935 351.36 132.881 352.413 132.881 353.776C132.881 355.138 131.935 356.192 130.613 356.192C129.291 356.192 128.352 355.138 128.352 353.776C128.352 352.413 129.291 351.36 130.613 351.36ZM130.613 355.554C131.539 355.554 132.197 354.796 132.197 353.776C132.197 352.756 131.539 351.997 130.613 351.997C129.687 351.997 129.036 352.749 129.036 353.776C129.036 354.796 129.687 355.554 130.613 355.554Z" fill="white"/>
        <path d="M135.099 352.521C135.099 353.044 134.656 353.333 134.213 353.333C133.958 353.333 133.737 353.279 133.603 353.185C133.522 353.131 133.482 353.064 133.482 352.977C133.482 352.85 133.576 352.742 133.71 352.742C133.757 352.742 133.791 352.749 133.858 352.796C133.911 352.829 134.019 352.897 134.173 352.897C134.388 352.897 134.603 352.776 134.603 352.534C134.603 352.34 134.435 352.232 134.22 352.232C134.086 352.232 133.992 352.299 133.844 352.306C133.737 352.313 133.636 352.219 133.636 352.105C133.636 352.044 133.65 351.97 133.703 351.93L134.334 351.38H133.744C133.609 351.38 133.509 351.279 133.509 351.152C133.509 351.017 133.609 350.93 133.744 350.93H134.744C134.891 350.93 134.999 351.031 134.999 351.172C135.005 351.246 134.985 351.319 134.931 351.36L134.381 351.823C134.851 351.829 135.099 352.125 135.099 352.521Z" fill="white"/>
        <animate attributeName="opacity" dur="7s" values="1;1;1;1;0;1;1;1;1;1;1;1;1;1;1;1" repeatCount="indefinite" />
    </g>
    <g opacity="1">
        <path d="M60.4959 384.623C63.14 384.623 65.0325 386.73 65.0325 389.455C65.0325 392.18 63.14 394.287 60.4959 394.287C57.8518 394.287 55.9728 392.18 55.9728 389.455C55.9728 386.73 57.8518 384.623 60.4959 384.623ZM60.4959 393.012C62.3481 393.012 63.6634 391.495 63.6634 389.455C63.6634 387.415 62.3481 385.898 60.4959 385.898C58.6437 385.898 57.3418 387.401 57.3418 389.455C57.3418 391.495 58.6437 393.012 60.4959 393.012Z" fill="white"/>
        <path d="M69.4681 386.945C69.4681 387.992 68.5823 388.569 67.6965 388.569C67.1864 388.569 66.7435 388.462 66.4751 388.274C66.314 388.166 66.2335 388.032 66.2335 387.858C66.2335 387.603 66.4214 387.388 66.6898 387.388C66.7838 387.388 66.8509 387.401 66.9851 387.495C67.0925 387.563 67.3072 387.697 67.6159 387.697C68.0454 387.697 68.4749 387.455 68.4749 386.972C68.4749 386.583 68.1394 386.368 67.7099 386.368C67.4414 386.368 67.2535 386.502 66.9583 386.516C66.7435 386.529 66.5422 386.341 66.5422 386.113C66.5422 385.992 66.569 385.845 66.6764 385.764L67.938 384.663H66.7569C66.4885 384.663 66.2872 384.462 66.2872 384.207C66.2872 383.939 66.4885 383.764 66.7569 383.764H68.7568C69.052 383.764 69.2668 383.965 69.2668 384.247C69.2802 384.395 69.2399 384.543 69.1326 384.623L68.032 385.549C68.9715 385.563 69.4681 386.153 69.4681 386.945Z" fill="white"/>
        <animate attributeName="opacity" dur="7s" values="1;1;1;1;1;0;1;1;1;1;1;1;1;1;1;1" repeatCount="indefinite" />
    </g>
    <g opacity="1">
        <path d="M146.618 379.59C149.263 379.59 151.155 381.697 151.155 384.422C151.155 387.146 149.263 389.254 146.618 389.254C143.974 389.254 142.095 387.146 142.095 384.422C142.095 381.697 143.974 379.59 146.618 379.59ZM146.618 387.979C148.471 387.979 149.786 386.462 149.786 384.422C149.786 382.382 148.471 380.865 146.618 380.865C144.766 380.865 143.464 382.368 143.464 384.422C143.464 386.462 144.766 387.979 146.618 387.979Z" fill="white"/>
        <path d="M155.591 381.912C155.591 382.959 154.705 383.536 153.819 383.536C153.309 383.536 152.866 383.429 152.598 383.241C152.437 383.133 152.356 382.999 152.356 382.825C152.356 382.57 152.544 382.355 152.812 382.355C152.906 382.355 152.973 382.368 153.108 382.462C153.215 382.529 153.43 382.664 153.738 382.664C154.168 382.664 154.597 382.422 154.597 381.939C154.597 381.55 154.262 381.335 153.832 381.335C153.564 381.335 153.376 381.469 153.081 381.482C152.866 381.496 152.665 381.308 152.665 381.08C152.665 380.959 152.692 380.811 152.799 380.731L154.061 379.63H152.88C152.611 379.63 152.41 379.429 152.41 379.174C152.41 378.906 152.611 378.731 152.88 378.731H154.879C155.175 378.731 155.389 378.932 155.389 379.214C155.403 379.362 155.363 379.509 155.255 379.59L154.155 380.516C155.094 380.53 155.591 381.12 155.591 381.912Z" fill="white"/>
        <animate attributeName="opacity" dur="7s" values="1;1;1;1;1;1;0;1;1;1;1;1;1;1;1;1" repeatCount="indefinite" />
    </g>
    <g opacity="1">
        <path d="M105.19 448.757C106.953 448.757 108.215 450.161 108.215 451.978C108.215 453.794 106.953 455.199 105.19 455.199C103.427 455.199 102.175 453.794 102.175 451.978C102.175 450.161 103.427 448.757 105.19 448.757ZM105.19 454.349C106.425 454.349 107.302 453.338 107.302 451.978C107.302 450.618 106.425 449.607 105.19 449.607C103.955 449.607 103.087 450.609 103.087 451.978C103.087 453.338 103.955 454.349 105.19 454.349Z" fill="white"/>
        <path d="M111.172 450.304C111.172 451.002 110.581 451.387 109.991 451.387C109.651 451.387 109.355 451.316 109.176 451.19C109.069 451.119 109.015 451.029 109.015 450.913C109.015 450.743 109.14 450.6 109.319 450.6C109.382 450.6 109.427 450.609 109.516 450.671C109.588 450.716 109.731 450.806 109.937 450.806C110.223 450.806 110.51 450.645 110.51 450.322C110.51 450.063 110.286 449.92 109.999 449.92C109.821 449.92 109.695 450.009 109.498 450.018C109.355 450.027 109.221 449.902 109.221 449.75C109.221 449.669 109.239 449.571 109.311 449.517L110.152 448.783H109.364C109.185 448.783 109.051 448.649 109.051 448.479C109.051 448.3 109.185 448.184 109.364 448.184H110.697C110.894 448.184 111.037 448.318 111.037 448.506C111.046 448.604 111.02 448.703 110.948 448.757L110.214 449.374C110.841 449.383 111.172 449.777 111.172 450.304Z" fill="white"/>
        <animate attributeName="opacity" dur="7s" values="1;1;1;1;1;1;1;0;1;1;1;1;1;1;1;1" repeatCount="indefinite" />
    </g>
    <g opacity="1">
        <path d="M170.106 476.338C172.751 476.338 174.643 478.445 174.643 481.17C174.643 483.895 172.751 486.002 170.106 486.002C167.462 486.002 165.583 483.895 165.583 481.17C165.583 478.445 167.462 476.338 170.106 476.338ZM170.106 484.727C171.959 484.727 173.274 483.21 173.274 481.17C173.274 479.13 171.959 477.613 170.106 477.613C168.254 477.613 166.952 479.116 166.952 481.17C166.952 483.21 168.254 484.727 170.106 484.727Z" fill="white"/>
        <path d="M179.079 478.66C179.079 479.707 178.193 480.284 177.307 480.284C176.797 480.284 176.354 480.177 176.086 479.989C175.925 479.881 175.844 479.747 175.844 479.573C175.844 479.318 176.032 479.103 176.3 479.103C176.394 479.103 176.461 479.116 176.596 479.21C176.703 479.277 176.918 479.412 177.226 479.412C177.656 479.412 178.085 479.17 178.085 478.687C178.085 478.298 177.75 478.083 177.32 478.083C177.052 478.083 176.864 478.217 176.569 478.231C176.354 478.244 176.153 478.056 176.153 477.828C176.153 477.707 176.18 477.559 176.287 477.479L177.549 476.378H176.367C176.099 476.378 175.898 476.177 175.898 475.922C175.898 475.654 176.099 475.479 176.367 475.479H178.367C178.663 475.479 178.877 475.68 178.877 475.962C178.891 476.11 178.85 476.258 178.743 476.338L177.643 477.264C178.582 477.278 179.079 477.868 179.079 478.66Z" fill="white"/>
        <animate attributeName="opacity" dur="7s" values="1;1;1;1;1;1;1;1;0;1;1;1;1;1;1;1" repeatCount="indefinite" />
    </g>
    <g opacity="1">
        <path d="M199.187 422.092C201.831 422.092 203.723 424.199 203.723 426.924C203.723 429.648 201.831 431.756 199.187 431.756C196.543 431.756 194.664 429.648 194.664 426.924C194.664 424.199 196.543 422.092 199.187 422.092ZM199.187 430.481C201.039 430.481 202.354 428.964 202.354 426.924C202.354 424.884 201.039 423.367 199.187 423.367C197.335 423.367 196.033 424.87 196.033 426.924C196.033 428.964 197.335 430.481 199.187 430.481Z" fill="white"/>
        <path d="M208.159 424.414C208.159 425.461 207.273 426.038 206.387 426.038C205.877 426.038 205.434 425.931 205.166 425.743C205.005 425.635 204.924 425.501 204.924 425.327C204.924 425.072 205.112 424.857 205.381 424.857C205.475 424.857 205.542 424.87 205.676 424.964C205.783 425.031 205.998 425.166 206.307 425.166C206.736 425.166 207.166 424.924 207.166 424.441C207.166 424.052 206.83 423.837 206.401 423.837C206.132 423.837 205.944 423.971 205.649 423.985C205.434 423.998 205.233 423.81 205.233 423.582C205.233 423.461 205.26 423.313 205.367 423.233L206.629 422.132H205.448C205.179 422.132 204.978 421.931 204.978 421.676C204.978 421.408 205.179 421.233 205.448 421.233H207.448C207.743 421.233 207.958 421.434 207.958 421.716C207.971 421.864 207.931 422.012 207.823 422.092L206.723 423.018C207.662 423.032 208.159 423.622 208.159 424.414Z" fill="white"/>
        <animate attributeName="opacity" dur="7s" values="1;1;1;1;1;1;1;1;1;0;1;1;1;1;1;1" repeatCount="indefinite" />
    </g>
    <g opacity="1">
        <path d="M261.262 355.543C263.906 355.543 265.799 357.65 265.799 360.375C265.799 363.099 263.906 365.206 261.262 365.206C258.618 365.206 256.739 363.099 256.739 360.375C256.739 357.65 258.618 355.543 261.262 355.543ZM261.262 363.931C263.114 363.931 264.43 362.415 264.43 360.375C264.43 358.335 263.114 356.818 261.262 356.818C259.41 356.818 258.108 358.321 258.108 360.375C258.108 362.415 259.41 363.931 261.262 363.931Z" fill="white"/>
        <path d="M270.234 357.865C270.234 358.912 269.349 359.489 268.463 359.489C267.953 359.489 267.51 359.381 267.241 359.194C267.08 359.086 267 358.952 267 358.777C267 358.522 267.188 358.308 267.456 358.308C267.55 358.308 267.617 358.321 267.751 358.415C267.859 358.482 268.073 358.616 268.382 358.616C268.812 358.616 269.241 358.375 269.241 357.892C269.241 357.502 268.906 357.288 268.476 357.288C268.208 357.288 268.02 357.422 267.725 357.435C267.51 357.449 267.308 357.261 267.308 357.033C267.308 356.912 267.335 356.764 267.443 356.684L268.704 355.583H267.523C267.255 355.583 267.053 355.382 267.053 355.127C267.053 354.858 267.255 354.684 267.523 354.684H269.523C269.818 354.684 270.033 354.885 270.033 355.167C270.046 355.315 270.006 355.462 269.899 355.543L268.798 356.469C269.738 356.482 270.234 357.073 270.234 357.865Z" fill="white"/>
        <animate attributeName="opacity" dur="7s" values="1;1;1;1;1;1;1;1;1;1;0;1;1;1;1;1" repeatCount="indefinite" />
    </g>
    <g opacity="1">
        <path d="M48.1927 484.167C50.8368 484.167 52.7292 486.275 52.7292 488.999C52.7292 491.724 50.8368 493.831 48.1927 493.831C45.5486 493.831 43.6696 491.724 43.6696 488.999C43.6696 486.275 45.5486 484.167 48.1927 484.167ZM48.1927 492.556C50.0449 492.556 51.3602 491.039 51.3602 488.999C51.3602 486.959 50.0449 485.442 48.1927 485.442C46.3405 485.442 45.0386 486.946 45.0386 488.999C45.0386 491.039 46.3405 492.556 48.1927 492.556Z" fill="white"/>
        <path d="M57.1649 486.489C57.1649 487.536 56.2791 488.113 55.3932 488.113C54.8832 488.113 54.4403 488.006 54.1719 487.818C54.0108 487.711 53.9303 487.577 53.9303 487.402C53.9303 487.147 54.1182 486.932 54.3866 486.932C54.4806 486.932 54.5477 486.946 54.6819 487.04C54.7893 487.107 55.004 487.241 55.3127 487.241C55.7422 487.241 56.1717 486.999 56.1717 486.516C56.1717 486.127 55.8361 485.912 55.4066 485.912C55.1382 485.912 54.9503 486.046 54.655 486.06C54.4403 486.073 54.239 485.885 54.239 485.657C54.239 485.536 54.2658 485.389 54.3732 485.308L55.6348 484.208H54.4537C54.1853 484.208 53.984 484.006 53.984 483.751C53.984 483.483 54.1853 483.308 54.4537 483.308H56.4535C56.7488 483.308 56.9636 483.51 56.9636 483.792C56.977 483.939 56.9367 484.087 56.8294 484.167L55.7288 485.094C56.6683 485.107 57.1649 485.698 57.1649 486.489Z" fill="white"/>
        <animate attributeName="opacity" dur="7s" values="1;1;1;1;1;1;1;1;1;1;1;0;1;1;1;1" repeatCount="indefinite" />
    </g>
    <g opacity="1">
        <path d="M214.286 518.281C216.93 518.281 218.823 520.388 218.823 523.113C218.823 525.837 216.93 527.945 214.286 527.945C211.642 527.945 209.763 525.837 209.763 523.113C209.763 520.388 211.642 518.281 214.286 518.281ZM214.286 526.669C216.138 526.669 217.454 525.153 217.454 523.113C217.454 521.073 216.138 519.556 214.286 519.556C212.434 519.556 211.132 521.059 211.132 523.113C211.132 525.153 212.434 526.669 214.286 526.669Z" fill="white"/>
        <path d="M223.258 520.603C223.258 521.65 222.373 522.227 221.487 522.227C220.977 522.227 220.534 522.12 220.265 521.932C220.104 521.824 220.024 521.69 220.024 521.516C220.024 521.261 220.212 521.046 220.48 521.046C220.574 521.046 220.641 521.059 220.775 521.153C220.883 521.22 221.098 521.354 221.406 521.354C221.836 521.354 222.265 521.113 222.265 520.63C222.265 520.24 221.93 520.026 221.5 520.026C221.232 520.026 221.044 520.16 220.749 520.173C220.534 520.187 220.332 519.999 220.332 519.771C220.332 519.65 220.359 519.502 220.467 519.422L221.728 518.321H220.547C220.279 518.321 220.077 518.12 220.077 517.865C220.077 517.596 220.279 517.422 220.547 517.422H222.547C222.842 517.422 223.057 517.623 223.057 517.905C223.071 518.053 223.03 518.2 222.923 518.281L221.822 519.207C222.762 519.22 223.258 519.811 223.258 520.603Z" fill="white"/>
        <animate attributeName="opacity" dur="7s" values="1;1;1;1;1;1;1;1;1;1;1;1;0;1;1;1" repeatCount="indefinite" />
    </g>
    <g opacity="1">
        <path d="M106.913 321.989C109.557 321.989 111.449 324.096 111.449 326.82C111.449 329.545 109.557 331.652 106.913 331.652C104.269 331.652 102.39 329.545 102.39 326.82C102.39 324.096 104.269 321.989 106.913 321.989ZM106.913 330.377C108.765 330.377 110.08 328.86 110.08 326.82C110.08 324.78 108.765 323.264 106.913 323.264C105.06 323.264 103.759 324.767 103.759 326.82C103.759 328.86 105.06 330.377 106.913 330.377Z" fill="white"/>
        <path d="M115.885 324.311C115.885 325.357 114.999 325.935 114.113 325.935C113.603 325.935 113.16 325.827 112.892 325.639C112.731 325.532 112.65 325.398 112.65 325.223C112.65 324.968 112.838 324.753 113.107 324.753C113.2 324.753 113.268 324.767 113.402 324.861C113.509 324.928 113.724 325.062 114.033 325.062C114.462 325.062 114.892 324.821 114.892 324.337C114.892 323.948 114.556 323.733 114.127 323.733C113.858 323.733 113.67 323.868 113.375 323.881C113.16 323.894 112.959 323.707 112.959 323.478C112.959 323.358 112.986 323.21 113.093 323.129L114.355 322.029H113.174C112.905 322.029 112.704 321.828 112.704 321.572C112.704 321.304 112.905 321.13 113.174 321.13H115.173C115.469 321.13 115.684 321.331 115.684 321.613C115.697 321.76 115.657 321.908 115.549 321.989L114.449 322.915C115.388 322.928 115.885 323.519 115.885 324.311Z" fill="white"/>
        <animate attributeName="opacity" dur="7s" values="1;1;1;1;1;1;1;1;1;1;1;1;1;0;1;1" repeatCount="indefinite" />
    </g>
    <g opacity="1">
        <path d="M168.384 319.573C170.147 319.573 171.408 320.977 171.408 322.794C171.408 324.61 170.147 326.015 168.384 326.015C166.621 326.015 165.369 324.61 165.369 322.794C165.369 320.977 166.621 319.573 168.384 319.573ZM168.384 325.165C169.619 325.165 170.496 324.154 170.496 322.794C170.496 321.434 169.619 320.423 168.384 320.423C167.149 320.423 166.281 321.425 166.281 322.794C166.281 324.154 167.149 325.165 168.384 325.165Z" fill="white"/>
        <path d="M174.365 321.121C174.365 321.819 173.775 322.203 173.184 322.203C172.844 322.203 172.549 322.132 172.37 322.006C172.263 321.935 172.209 321.845 172.209 321.729C172.209 321.559 172.334 321.416 172.513 321.416C172.576 321.416 172.621 321.425 172.71 321.487C172.782 321.532 172.925 321.622 173.131 321.622C173.417 321.622 173.703 321.461 173.703 321.139C173.703 320.879 173.48 320.736 173.193 320.736C173.014 320.736 172.889 320.825 172.692 320.834C172.549 320.843 172.415 320.718 172.415 320.566C172.415 320.485 172.433 320.387 172.504 320.333L173.345 319.6H172.558C172.379 319.6 172.245 319.465 172.245 319.295C172.245 319.116 172.379 319 172.558 319H173.891C174.088 319 174.231 319.134 174.231 319.322C174.24 319.421 174.213 319.519 174.142 319.573L173.408 320.19C174.034 320.199 174.365 320.593 174.365 321.121Z" fill="white"/>
        <animate attributeName="opacity" dur="7s" values="1;1;1;1;1;1;1;1;1;1;1;1;1;1;0;1" repeatCount="indefinite" />
    </g>
</svg>
