<svg width="136" height="130" viewBox="0 0 136 130" fill="none" xmlns="http://www.w3.org/2000/svg">
<path d="M87.0165 10.7434L86.6338 9.81955L87.0165 10.7434ZM17.7434 80.0165L18.6673 80.3992L17.7434 80.0165ZM8.70711 129.707C8.31658 130.098 7.68341 130.098 7.29289 129.707L0.928925 123.343C0.538407 122.953 0.538407 122.319 0.928925 121.929C1.31946 121.538 1.95262 121.538 2.34314 121.929L8 127.586L13.6569 121.929C14.0474 121.538 14.6805 121.538 15.0711 121.929C15.4616 122.319 15.4616 122.953 15.0711 123.343L8.70711 129.707ZM136 2.00001C119.322 2.00001 102.808 5.28496 87.3992 11.6673L86.6338 9.81955C102.285 3.33669 119.059 -7.40494e-07 136 0L136 2.00001ZM87.3992 11.6673C71.9909 18.0497 57.9905 27.4044 46.1974 39.1974L44.7832 37.7832C56.762 25.8045 70.9828 16.3024 86.6338 9.81955L87.3992 11.6673ZM46.1974 39.1974C34.4044 50.9905 25.0496 64.9908 18.6673 80.3992L16.8195 79.6338C23.3024 63.9828 32.8045 49.762 44.7832 37.7832L46.1974 39.1974ZM18.6673 80.3992C12.285 95.8075 9 112.322 9 129L7 129C7 112.059 10.3367 95.2848 16.8195 79.6338L18.6673 80.3992Z" fill="#CEA476"/>
</svg>
